<svg version="1.1" xmlns="http://www.w3.org/2000/svg" xmlns:xlink="http://www.w3.org/1999/xlink" width="1316" height="788"><defs/><g><g transform="translate(-46,-14) scale(1,1)"><rect fill="#C0C0C0" stroke="none" x="167" y="31" width="457.6" height="15" opacity="0.2"/></g><g transform="translate(-46,-14) scale(1,1)"><rect fill="#C0C0C0" stroke="none" x="167" y="45" width="1144" height="266" opacity="0.2"/></g><g transform="translate(-46,-14) scale(1,1)"><rect fill="#a3e0ff" stroke="none" x="160" y="39" width="1144" height="265"/></g><g transform="translate(-46,-14) scale(1,1)"><path fill="none" stroke="#000000" d="M 160 39 L 1304 39 L 1304 304 L 160 304 L 160 39 Z Z" stroke-miterlimit="10"/></g><g transform="translate(-46,-14) scale(1,1)"><rect fill="#a3e0ff" stroke="none" x="160" y="24" width="457.6" height="15"/></g><g transform="translate(-46,-14) scale(1,1)"><path fill="none" stroke="#000000" d="M 160 24 L 617.6 24 L 617.6 39 L 160 39 L 160 24 Z Z" stroke-miterlimit="10"/></g><g transform="translate(-46,-14) scale(1,1)"><rect fill="#a3e0ff" stroke="none" x="160" y="38" width="1144" height="266"/></g><g transform="translate(-46,-14) scale(1,1)"><path fill="none" stroke="#000000" d="M 160 38 L 1304 38 L 1304 304 L 160 304 L 160 38 Z Z" stroke-miterlimit="10"/></g><g transform="translate(-46,-14) scale(1,1)"><g><path fill="none" stroke="none"/><text fill="#000000" stroke="none" font-family="monospace" font-size="11px" font-style="normal" font-weight="bold" text-decoration="none" x="698.99462890625" y="54.47509765625">cs1302.gen</text></g></g><g transform="translate(-46,-14) scale(1,1)"><rect fill="#C0C0C0" stroke="none" x="63" y="367" width="518.4" height="15" opacity="0.2"/></g><g transform="translate(-46,-14) scale(1,1)"><rect fill="#C0C0C0" stroke="none" x="63" y="381" width="1296" height="418" opacity="0.2"/></g><g transform="translate(-46,-14) scale(1,1)"><rect fill="#a3e0ff" stroke="none" x="56" y="375" width="1296" height="417"/></g><g transform="translate(-46,-14) scale(1,1)"><path fill="none" stroke="#000000" d="M 56 375 L 1352 375 L 1352 792 L 56 792 L 56 375 Z Z" stroke-miterlimit="10"/></g><g transform="translate(-46,-14) scale(1,1)"><rect fill="#a3e0ff" stroke="none" x="56" y="360" width="518.4" height="15"/></g><g transform="translate(-46,-14) scale(1,1)"><path fill="none" stroke="#000000" d="M 56 360 L 574.4 360 L 574.4 375 L 56 375 L 56 360 Z Z" stroke-miterlimit="10"/></g><g transform="translate(-46,-14) scale(1,1)"><rect fill="#a3e0ff" stroke="none" x="56" y="374" width="1296" height="418"/></g><g transform="translate(-46,-14) scale(1,1)"><path fill="none" stroke="#000000" d="M 56 374 L 1352 374 L 1352 792 L 56 792 L 56 374 Z Z" stroke-miterlimit="10"/></g><g transform="translate(-46,-14) scale(1,1)"><g><path fill="none" stroke="none"/><text fill="#000000" stroke="none" font-family="monospace" font-size="11px" font-style="normal" font-weight="bold" text-decoration="none" x="674.295166015625" y="390.47509765625">cs1302.p3</text></g></g><g transform="translate(-46,-14) scale(1,1)"><rect fill="#C0C0C0" stroke="none" x="79" y="679" width="625.30029296875" height="82" opacity="0.2"/></g><g transform="translate(-46,-14) scale(1,1)"><rect fill="#ffff91" stroke="none" x="72" y="672" width="625.30029296875" height="82"/></g><g transform="translate(-46,-14) scale(1,1)"><path fill="none" stroke="#000000" d="M 72 672 L 697.30029296875 672 L 697.30029296875 754 L 72 754 L 72 672 Z Z" stroke-miterlimit="10"/></g><g transform="translate(-46,-14) scale(1,1)"><path fill="none" stroke="#000000" d="M 72 695 L 697.30029296875 695" stroke-miterlimit="10"/></g><g transform="translate(-46,-14) scale(1,1)"><g><path fill="none" stroke="none"/><text fill="#000000" stroke="none" font-family="monospace" font-size="11px" font-style="normal" font-weight="bold" text-decoration="none" x="222.923828125" y="687.6953125">LinkedUrgencyQueue&lt;Type extends Comparable&lt;Type&gt;&gt;</text></g></g><g transform="translate(-46,-14) scale(1,1)"><g><path fill="none" stroke="none"/><text fill="#000000" stroke="none" font-family="monospace" font-size="11px" font-style="normal" font-weight="normal" text-decoration="none" x="77" y="708.6953125">«new»+LinkedUrgencyQueue()</text></g></g><g transform="translate(-46,-14) scale(1,1)"><g><path fill="none" stroke="none"/><text fill="#000000" stroke="none" font-family="monospace" font-size="11px" font-style="normal" font-weight="normal" text-decoration="none" x="77" y="721.6953125">«override»+enqueue(value: Type): boolean</text></g></g><g transform="translate(-46,-14) scale(1,1)"><g><path fill="none" stroke="none"/><text fill="#000000" stroke="none" font-family="monospace" font-size="11px" font-style="normal" font-weight="normal" text-decoration="none" x="77" y="734.6953125">«override»+dequeueMany(num: int): UrgencyQueue&lt;Type&gt;</text></g></g><g transform="translate(-46,-14) scale(1,1)"><g><path fill="none" stroke="none"/><text fill="#000000" stroke="none" font-family="monospace" font-size="11px" font-style="normal" font-weight="normal" text-decoration="none" x="77" y="747.6953125">«override»+filter(cond: java.util.function.Predicate&lt;Type&gt;): UrgencyQueue&lt;Type&gt;</text></g></g><g transform="translate(-46,-14) scale(1,1)"><rect fill="#C0C0C0" stroke="none" x="391" y="415" width="625.30029296875" height="205" opacity="0.2"/></g><g transform="translate(-46,-14) scale(1,1)"><rect fill="#ffff91" stroke="none" x="384" y="408" width="625.30029296875" height="205"/></g><g transform="translate(-46,-14) scale(1,1)"><path fill="none" stroke="#000000" d="M 384 408 L 1009.30029296875 408 L 1009.30029296875 613 L 384 613 L 384 408 Z Z" stroke-miterlimit="10"/></g><g transform="translate(-46,-14) scale(1,1)"><path fill="none" stroke="#000000" d="M 384 442 L 1009.30029296875 442" stroke-miterlimit="10"/></g><g transform="translate(-46,-14) scale(1,1)"><path fill="none" stroke="#000000" d="M 384 476 L 1009.30029296875 476" stroke-miterlimit="10"/></g><g transform="translate(-46,-14) scale(1,1)"><g><path fill="none" stroke="none"/><text fill="#000000" stroke="none" font-family="monospace" font-size="11px" font-style="normal" font-weight="normal" text-decoration="none" x="663.644775390625" y="421.515380859375">«abstract»</text></g></g><g transform="translate(-46,-14) scale(1,1)"><g><path fill="none" stroke="none"/><text fill="#000000" stroke="none" font-family="monospace" font-size="11px" font-style="italic" font-weight="bold" text-decoration="none" x="604.235107421875" y="434.6953125">BaseLinkedUrgencyQueue&lt;Type&gt;</text></g></g><g transform="translate(-46,-14) scale(1,1)"><g><path fill="none" stroke="none"/><text fill="#000000" stroke="none" font-family="monospace" font-size="11px" font-style="normal" font-weight="normal" text-decoration="none" x="389" y="455.6953125">~size: int</text></g></g><g transform="translate(-46,-14) scale(1,1)"><g><path fill="none" stroke="none"/><text fill="#000000" stroke="none" font-family="monospace" font-size="11px" font-style="normal" font-weight="normal" text-decoration="none" x="389" y="468.515380859375">~head: Node&lt;Type&gt;</text></g></g><g transform="translate(-46,-14) scale(1,1)"><g><path fill="none" stroke="none"/><text fill="#000000" stroke="none" font-family="monospace" font-size="11px" font-style="normal" font-weight="normal" text-decoration="none" x="389" y="489.279052734375">«new»+BaseUrgencyQueue()</text></g></g><g transform="translate(-46,-14) scale(1,1)"><g><path fill="none" stroke="none"/><text fill="#000000" stroke="none" font-family="monospace" font-size="11px" font-style="normal" font-weight="normal" text-decoration="none" x="389" y="502.6953125">«override»+size(): int</text></g></g><g transform="translate(-46,-14) scale(1,1)"><g><path fill="none" stroke="none"/><text fill="#000000" stroke="none" font-family="monospace" font-size="11px" font-style="normal" font-weight="normal" text-decoration="none" x="389" y="515.6953125">«override»+peek(): Type</text></g></g><g transform="translate(-46,-14) scale(1,1)"><g><path fill="none" stroke="none"/><text fill="#000000" stroke="none" font-family="monospace" font-size="11px" font-style="normal" font-weight="normal" text-decoration="none" x="389" y="528.6953125">«override»+toString(): String</text></g></g><g transform="translate(-46,-14) scale(1,1)"><g><path fill="none" stroke="none"/><text fill="#000000" stroke="none" font-family="monospace" font-size="11px" font-style="normal" font-weight="normal" text-decoration="none" x="389" y="541.6953125">«override»+dequeue(): Type</text></g></g><g transform="translate(-46,-14) scale(1,1)"><g><path fill="none" stroke="none"/><text fill="#000000" stroke="none" font-family="monospace" font-size="11px" font-style="normal" font-weight="normal" text-decoration="none" x="389" y="554.6953125">«override»+dequeue(action: Consumer&lt;Type&gt;): void</text></g></g><g transform="translate(-46,-14) scale(1,1)"><g><path fill="none" stroke="none"/><text fill="#000000" stroke="none" font-family="monospace" font-size="11px" font-style="normal" font-weight="normal" text-decoration="none" x="389" y="567.6953125">«override»+dequeueMany(num: int, action: Consumer&lt;Type&gt;): void</text></g></g><g transform="translate(-46,-14) scale(1,1)"><g><path fill="none" stroke="none"/><text fill="#000000" stroke="none" font-family="monospace" font-size="11px" font-style="normal" font-weight="normal" text-decoration="none" x="389" y="580.6953125">«override»+clear(): void</text></g></g><g transform="translate(-46,-14) scale(1,1)"><g><path fill="none" stroke="none"/><text fill="#000000" stroke="none" font-family="monospace" font-size="11px" font-style="normal" font-weight="normal" text-decoration="none" x="389" y="593.6953125">«override»+&lt;SubType extends Type&gt;enqueueAll(values: Iterable&lt;SubType&gt;): boolean</text></g></g><g transform="translate(-46,-14) scale(1,1)"><g><path fill="none" stroke="none"/><text fill="#000000" stroke="none" font-family="monospace" font-size="11px" font-style="normal" font-weight="normal" text-decoration="none" x="389" y="606.6953125">«override»+toArray(generator: java.util.function.IntFunction&lt;Type[]&gt;): Type[]</text></g></g><g transform="translate(-46,-14) scale(1,1)"><path fill="none" stroke="#000000" d="M 563 408 L 563 269" stroke-miterlimit="10" stroke-dasharray="3"/></g><g transform="translate(-46,-14) scale(1,1)"><path fill="#FFFFFF" stroke="none" d="M 571.419035512032 289.3253497152483 L 563 269 L 554.580964487968 289.3253497152483"/></g><g transform="translate(-46,-14) scale(1,1)"><path fill="none" stroke="#000000" d="M 571.419035512032 289.3253497152483 L 563 269 L 554.580964487968 289.3253497152483 L 571.419035512032 289.3253497152483" stroke-miterlimit="10"/></g><g transform="translate(-46,-14) scale(1,1)"><g><path fill="none" stroke="none"/><text fill="#000000" stroke="none" font-family="monospace" font-size="11px" font-style="normal" font-weight="normal" text-decoration="none" x="579.5009765625" y="335.6953125">implements</text></g></g><g transform="translate(-46,-14) scale(1,1)"><path fill="none" stroke="#000000" d="M 520 672 L 520 613" stroke-miterlimit="10"/></g><g transform="translate(-46,-14) scale(1,1)"><path fill="#FFFFFF" stroke="none" d="M 528.419035512032 633.3253497152483 L 520 613 L 511.580964487968 633.3253497152483"/></g><g transform="translate(-46,-14) scale(1,1)"><path fill="none" stroke="#000000" d="M 528.419035512032 633.3253497152483 L 520 613 L 511.580964487968 633.3253497152483 L 528.419035512032 633.3253497152483" stroke-miterlimit="10"/></g><g transform="translate(-46,-14) scale(1,1)"><g><path fill="none" stroke="none"/><text fill="#000000" stroke="none" font-family="monospace" font-size="11px" font-style="normal" font-weight="normal" text-decoration="none" x="530.70068359375" y="654.515380859375">extends</text></g></g><g transform="translate(-46,-14) scale(1,1)"><rect fill="#C0C0C0" stroke="none" x="183" y="79" width="547.28759765625" height="197" opacity="0.2"/></g><g transform="translate(-46,-14) scale(1,1)"><rect fill="#ffff91" stroke="none" x="176" y="72" width="547.28759765625" height="197"/></g><g transform="translate(-46,-14) scale(1,1)"><path fill="none" stroke="#000000" d="M 176 72 L 723.28759765625 72 L 723.28759765625 269 L 176 269 L 176 72 Z Z" stroke-miterlimit="10"/></g><g transform="translate(-46,-14) scale(1,1)"><path fill="none" stroke="#000000" d="M 176 106 L 723.28759765625 106" stroke-miterlimit="10"/></g><g transform="translate(-46,-14) scale(1,1)"><g><path fill="none" stroke="none"/><text fill="#000000" stroke="none" font-family="monospace" font-size="11px" font-style="normal" font-weight="normal" text-decoration="none" x="413.337890625" y="85.6953125">«interface»</text></g></g><g transform="translate(-46,-14) scale(1,1)"><g><path fill="none" stroke="none"/><text fill="#000000" stroke="none" font-family="monospace" font-size="11px" font-style="normal" font-weight="bold" text-decoration="none" x="390.234130859375" y="98.273681640625">UrgencyQueue&lt;Type&gt;</text></g></g><g transform="translate(-46,-14) scale(1,1)"><g><path fill="none" stroke="none"/><text fill="#000000" stroke="none" font-family="monospace" font-size="11px" font-style="italic" font-weight="normal" text-decoration="none" x="181" y="119.6953125">+size(): int</text></g></g><g transform="translate(-46,-14) scale(1,1)"><g><path fill="none" stroke="none"/><text fill="#000000" stroke="none" font-family="monospace" font-size="11px" font-style="italic" font-weight="normal" text-decoration="none" x="181" y="132.515380859375">+enqueue(value: Type): boolean</text></g></g><g transform="translate(-46,-14) scale(1,1)"><g><path fill="none" stroke="none"/><text fill="#000000" stroke="none" font-family="monospace" font-size="11px" font-style="italic" font-weight="normal" text-decoration="none" x="181" y="145.515380859375">+peek(): Type</text></g></g><g transform="translate(-46,-14) scale(1,1)"><g><path fill="none" stroke="none"/><text fill="#000000" stroke="none" font-family="monospace" font-size="11px" font-style="italic" font-weight="normal" text-decoration="none" x="181" y="158.6953125">+toString(): String</text></g></g><g transform="translate(-46,-14) scale(1,1)"><g><path fill="none" stroke="none"/><text fill="#000000" stroke="none" font-family="monospace" font-size="11px" font-style="italic" font-weight="normal" text-decoration="none" x="181" y="171.515380859375">+dequeue(): Type</text></g></g><g transform="translate(-46,-14) scale(1,1)"><g><path fill="none" stroke="none"/><text fill="#000000" stroke="none" font-family="monospace" font-size="11px" font-style="italic" font-weight="normal" text-decoration="none" x="181" y="184.6953125">+dequeue(action: Consumer&lt;Type&gt;): void</text></g></g><g transform="translate(-46,-14) scale(1,1)"><g><path fill="none" stroke="none"/><text fill="#000000" stroke="none" font-family="monospace" font-size="11px" font-style="italic" font-weight="normal" text-decoration="none" x="181" y="197.6953125">+dequeueMany(num: int): UrgencyQueue&lt;Type&gt;</text></g></g><g transform="translate(-46,-14) scale(1,1)"><g><path fill="none" stroke="none"/><text fill="#000000" stroke="none" font-family="monospace" font-size="11px" font-style="italic" font-weight="normal" text-decoration="none" x="181" y="210.6953125">+dequeueMany(num: int, action: Consumer&lt;Type&gt;): void</text></g></g><g transform="translate(-46,-14) scale(1,1)"><g><path fill="none" stroke="none"/><text fill="#000000" stroke="none" font-family="monospace" font-size="11px" font-style="italic" font-weight="normal" text-decoration="none" x="181" y="223.6953125">+clear(): void</text></g></g><g transform="translate(-46,-14) scale(1,1)"><g><path fill="none" stroke="none"/><text fill="#000000" stroke="none" font-family="monospace" font-size="11px" font-style="italic" font-weight="normal" text-decoration="none" x="181" y="236.6953125">+filter(cond: java.util.function.Predicate&lt;Type&gt;): UrgencyQueue&lt;Type&gt;</text></g></g><g transform="translate(-46,-14) scale(1,1)"><g><path fill="none" stroke="none"/><text fill="#000000" stroke="none" font-family="monospace" font-size="11px" font-style="italic" font-weight="normal" text-decoration="none" x="181" y="249.515380859375">+&lt;SubType extends Type&gt;enqueueAll(values: Iterable&lt;SubType&gt;): boolean</text></g></g><g transform="translate(-46,-14) scale(1,1)"><g><path fill="none" stroke="none"/><text fill="#000000" stroke="none" font-family="monospace" font-size="11px" font-style="italic" font-weight="normal" text-decoration="none" x="181" y="262.6953125">+toArray(generator: java.util.function.IntFunction&lt;Type[]&gt;): Type[]</text></g></g><g transform="translate(-46,-14) scale(1,1)"><path fill="none" stroke="#000000" d="M 888 672 L 888 613" stroke-miterlimit="10"/></g><g transform="translate(-46,-14) scale(1,1)"><path fill="#FFFFFF" stroke="none" d="M 896.419035512032 633.3253497152483 L 888 613 L 879.580964487968 633.3253497152483"/></g><g transform="translate(-46,-14) scale(1,1)"><path fill="none" stroke="#000000" d="M 896.419035512032 633.3253497152483 L 888 613 L 879.580964487968 633.3253497152483 L 896.419035512032 633.3253497152483" stroke-miterlimit="10"/></g><g transform="translate(-46,-14) scale(1,1)"><g><path fill="none" stroke="none"/><text fill="#000000" stroke="none" font-family="monospace" font-size="11px" font-style="normal" font-weight="normal" text-decoration="none" x="898.70068359375" y="646.515380859375">extends</text></g></g><g transform="translate(-46,-14) scale(1,1)"><rect fill="#ffff91" stroke="none" x="712" y="672" width="625.30029296875" height="103"/></g><g transform="translate(-46,-14) scale(1,1)"><path fill="none" stroke="#000000" d="M 712 672 L 1337.30029296875 672 L 1337.30029296875 775 L 712 775 L 712 672 Z Z" stroke-miterlimit="10"/></g><g transform="translate(-46,-14) scale(1,1)"><path fill="none" stroke="#000000" d="M 712 695 L 1337.30029296875 695" stroke-miterlimit="10"/></g><g transform="translate(-46,-14) scale(1,1)"><path fill="none" stroke="#000000" d="M 712 716 L 1337.30029296875 716" stroke-miterlimit="10"/></g><g transform="translate(-46,-14) scale(1,1)"><g><path fill="none" stroke="none"/><text fill="#000000" stroke="none" font-family="monospace" font-size="11px" font-style="normal" font-weight="bold" text-decoration="none" x="925.634033203125" y="687.6953125">CustomLinkedUrgencyQueue&lt;Type&gt;</text></g></g><g transform="translate(-46,-14) scale(1,1)"><g><path fill="none" stroke="none"/><text fill="#000000" stroke="none" font-family="monospace" font-size="11px" font-style="normal" font-weight="normal" text-decoration="none" x="717" y="708.6953125">-comparator: java.util.Comparator&lt;Type&gt;</text></g></g><g transform="translate(-46,-14) scale(1,1)"><g><path fill="none" stroke="none"/><text fill="#000000" stroke="none" font-family="monospace" font-size="11px" font-style="normal" font-weight="normal" text-decoration="none" x="717" y="729.6953125">«new»+CustomLinkedUrgencyQueue(comparator: java.util.Comparator&lt;Type&gt;)</text></g></g><g transform="translate(-46,-14) scale(1,1)"><g><path fill="none" stroke="none"/><text fill="#000000" stroke="none" font-family="monospace" font-size="11px" font-style="normal" font-weight="normal" text-decoration="none" x="717" y="742.6953125">«override»+enqueue(value: Type): boolean</text></g></g><g transform="translate(-46,-14) scale(1,1)"><g><path fill="none" stroke="none"/><text fill="#000000" stroke="none" font-family="monospace" font-size="11px" font-style="normal" font-weight="normal" text-decoration="none" x="717" y="755.6953125">«override»+dequeueMany(num: int): UrgencyQueue&lt;Type&gt;</text></g></g><g transform="translate(-46,-14) scale(1,1)"><g><path fill="none" stroke="none"/><text fill="#000000" stroke="none" font-family="monospace" font-size="11px" font-style="normal" font-weight="normal" text-decoration="none" x="717" y="768.6953125">«override»+filter(cond: java.util.function.Predicate&lt;Type&gt;): UrgencyQueue&lt;Type&gt;</text></g></g><g transform="translate(-46,-14) scale(1,1)"><rect fill="#C0C0C0" stroke="none" x="775" y="79" width="517.28271484375" height="181" opacity="0.2"/></g><g transform="translate(-46,-14) scale(1,1)"><rect fill="#fffca0" stroke="none" x="768" y="72" width="517.28271484375" height="181"/></g><g transform="translate(-46,-14) scale(1,1)"><path fill="none" stroke="#000000" d="M 768 72 L 1285.28271484375 72 L 1285.28271484375 253 L 768 253 L 768 72 Z Z" stroke-miterlimit="10"/></g><g transform="translate(-46,-14) scale(1,1)"><path fill="none" stroke="#000000" d="M 768 95 L 1285.28271484375 95" stroke-miterlimit="10"/></g><g transform="translate(-46,-14) scale(1,1)"><path fill="none" stroke="#000000" d="M 768 129 L 1285.28271484375 129" stroke-miterlimit="10"/></g><g transform="translate(-46,-14) scale(1,1)"><g><path fill="none" stroke="none"/><text fill="#000000" stroke="none" font-family="monospace" font-size="11px" font-style="normal" font-weight="bold" text-decoration="none" x="993.635986328125" y="87.515380859375">Node&lt;Type&gt;</text></g></g><g transform="translate(-46,-14) scale(1,1)"><g><path fill="none" stroke="none"/><text fill="#000000" stroke="none" font-family="monospace" font-size="11px" font-style="normal" font-weight="normal" text-decoration="none" x="773" y="108.6953125">-item: Type</text></g></g><g transform="translate(-46,-14) scale(1,1)"><g><path fill="none" stroke="none"/><text fill="#000000" stroke="none" font-family="monospace" font-size="11px" font-style="normal" font-weight="normal" text-decoration="none" x="773" y="121.515380859375">-next: Node&lt;Type&gt;</text></g></g><g transform="translate(-46,-14) scale(1,1)"><g><path fill="none" stroke="none"/><text fill="#000000" stroke="none" font-family="monospace" font-size="11px" font-style="normal" font-weight="normal" text-decoration="none" x="773" y="142.6953125">«new»+Node(item: Type)</text></g></g><g transform="translate(-46,-14) scale(1,1)"><g><path fill="none" stroke="none"/><text fill="#000000" stroke="none" font-family="monospace" font-size="11px" font-style="normal" font-weight="normal" text-decoration="none" x="773" y="155.6953125">«new»+Node(item: Type, next: Node&lt;Type&gt;)</text></g></g><g transform="translate(-46,-14) scale(1,1)"><g><path fill="none" stroke="none"/><text fill="#000000" stroke="none" font-family="monospace" font-size="11px" font-style="normal" font-weight="normal" text-decoration="none" x="773" y="168.279052734375">+getItem(): Type</text></g></g><g transform="translate(-46,-14) scale(1,1)"><g><path fill="none" stroke="none"/><text fill="#000000" stroke="none" font-family="monospace" font-size="11px" font-style="normal" font-weight="normal" text-decoration="none" x="773" y="181.6953125">+setItem(item: Type): void</text></g></g><g transform="translate(-46,-14) scale(1,1)"><g><path fill="none" stroke="none"/><text fill="#000000" stroke="none" font-family="monospace" font-size="11px" font-style="normal" font-weight="normal" text-decoration="none" x="773" y="194.515380859375">+getNext(): Node&lt;Type&gt;</text></g></g><g transform="translate(-46,-14) scale(1,1)"><g><path fill="none" stroke="none"/><text fill="#000000" stroke="none" font-family="monospace" font-size="11px" font-style="normal" font-weight="normal" text-decoration="none" x="773" y="207.515380859375">+hasNext(): boolean</text></g></g><g transform="translate(-46,-14) scale(1,1)"><g><path fill="none" stroke="none"/><text fill="#000000" stroke="none" font-family="monospace" font-size="11px" font-style="normal" font-weight="normal" text-decoration="none" x="773" y="220.6953125">+setNext(next: Node&lt;Type&gt;): void</text></g></g><g transform="translate(-46,-14) scale(1,1)"><g><path fill="none" stroke="none"/><text fill="#000000" stroke="none" font-family="monospace" font-size="11px" font-style="normal" font-weight="normal" text-decoration="none" x="773" y="233.6953125">«static»+asString(node: Node&lt;Type&gt;): String</text><path fill="none" stroke="#000000" d="M 773 235.5 L 1056.84619140625 235.5" stroke-miterlimit="10"/></g></g><g transform="translate(-46,-14) scale(1,1)"><g><path fill="none" stroke="none"/><text fill="#000000" stroke="none" font-family="monospace" font-size="11px" font-style="normal" font-weight="normal" text-decoration="none" x="773" y="246.6953125">«static»+asString(node: Node&lt;Type&gt;, toString: Function&lt;Type, String&gt;): String</text><path fill="none" stroke="#000000" d="M 773 248.5 L 1281.28271484375 248.5" stroke-miterlimit="10"/></g></g><g transform="translate(-46,-14) scale(1,1)"><path fill="none" stroke="#000000" d="M 872 408 L 872 253" stroke-miterlimit="10"/></g><g transform="translate(-46,-14) scale(1,1)"><path fill="none" stroke="#000000" d="M 876.209517756016 263.16267485762415 L 872 253 L 867.790482243984 263.16267485762415" stroke-miterlimit="10"/></g><g transform="translate(-46,-14) scale(1,1)"><g><path fill="none" stroke="none"/><text fill="#000000" stroke="none" font-family="monospace" font-size="11px" font-style="normal" font-weight="normal" text-decoration="none" x="882.800537109375" y="343.55126953125">uses</text></g></g></g></svg>