<svg width="298" height="94" viewBox="0 0 298 94" fill="none" xmlns="http://www.w3.org/2000/svg">
<g clip-path="url(#clip0_5_90)">
<rect width="298" height="94" fill="white"/>
<path d="M11.8182 51.5H8.8608V42.7727H11.8778C12.7443 42.7727 13.4886 42.9474 14.1108 43.2969C14.7358 43.6435 15.2159 44.142 15.5511 44.7926C15.8864 45.4432 16.054 46.2216 16.054 47.1278C16.054 48.0369 15.8849 48.8182 15.5469 49.4716C15.2116 50.125 14.7273 50.6264 14.0938 50.9759C13.4631 51.3253 12.7045 51.5 11.8182 51.5ZM10.4418 50.1321H11.7415C12.3494 50.1321 12.8565 50.0213 13.2628 49.7997C13.669 49.5753 13.9744 49.2415 14.179 48.7983C14.3835 48.3523 14.4858 47.7955 14.4858 47.1278C14.4858 46.4602 14.3835 45.9062 14.179 45.4659C13.9744 45.0227 13.6719 44.6918 13.2713 44.473C12.8736 44.2514 12.3793 44.1406 11.7884 44.1406H10.4418V50.1321ZM17.5561 51.5V42.7727H23.2322V44.098H19.1371V46.4673H22.9382V47.7926H19.1371V50.1747H23.2663V51.5H17.5561ZM28.0966 48.5682H29.5284L30.3764 49.6676L30.9815 50.3835L32.4347 52.25H30.9006L29.9119 50.9972L29.4901 50.4006L28.0966 48.5682ZM32.6435 47.1364C32.6435 48.0767 32.4673 48.8821 32.1151 49.5526C31.7656 50.2202 31.2884 50.7315 30.6832 51.0866C30.081 51.4418 29.3977 51.6193 28.6335 51.6193C27.8693 51.6193 27.1847 51.4418 26.5795 51.0866C25.9773 50.7287 25.5 50.2159 25.1477 49.5483C24.7983 48.8778 24.6236 48.0739 24.6236 47.1364C24.6236 46.196 24.7983 45.392 25.1477 44.7244C25.5 44.054 25.9773 43.5412 26.5795 43.1861C27.1847 42.831 27.8693 42.6534 28.6335 42.6534C29.3977 42.6534 30.081 42.831 30.6832 43.1861C31.2884 43.5412 31.7656 44.054 32.1151 44.7244C32.4673 45.392 32.6435 46.196 32.6435 47.1364ZM31.054 47.1364C31.054 46.4744 30.9503 45.9162 30.7429 45.4616C30.5384 45.0043 30.2543 44.6591 29.8906 44.4261C29.527 44.1903 29.108 44.0724 28.6335 44.0724C28.1591 44.0724 27.7401 44.1903 27.3764 44.4261C27.0128 44.6591 26.7273 45.0043 26.5199 45.4616C26.3153 45.9162 26.2131 46.4744 26.2131 47.1364C26.2131 47.7983 26.3153 48.358 26.5199 48.8153C26.7273 49.2699 27.0128 49.6151 27.3764 49.8509C27.7401 50.0838 28.1591 50.2003 28.6335 50.2003C29.108 50.2003 29.527 50.0838 29.8906 49.8509C30.2543 49.6151 30.5384 49.2699 30.7429 48.8153C30.9503 48.358 31.054 47.7983 31.054 47.1364ZM39.6513 42.7727H41.2322V48.4744C41.2322 49.0994 41.0845 49.6491 40.7891 50.1236C40.4964 50.598 40.0845 50.9687 39.5533 51.2358C39.022 51.5 38.4013 51.6321 37.6911 51.6321C36.978 51.6321 36.3558 51.5 35.8246 51.2358C35.2933 50.9687 34.8814 50.598 34.5888 50.1236C34.2962 49.6491 34.1499 49.0994 34.1499 48.4744V42.7727H35.7308V48.3423C35.7308 48.706 35.8104 49.0298 35.9695 49.3139C36.1314 49.598 36.3587 49.821 36.6513 49.983C36.9439 50.142 37.2905 50.2216 37.6911 50.2216C38.0916 50.2216 38.4382 50.142 38.7308 49.983C39.0263 49.821 39.2536 49.598 39.4126 49.3139C39.5717 49.0298 39.6513 48.706 39.6513 48.3423V42.7727ZM42.9506 51.5V42.7727H48.6268V44.098H44.5316V46.4673H48.3327V47.7926H44.5316V50.1747H48.6609V51.5H42.9506ZM55.7411 42.7727H57.3221V48.4744C57.3221 49.0994 57.1744 49.6491 56.8789 50.1236C56.5863 50.598 56.1744 50.9687 55.6431 51.2358C55.1119 51.5 54.4911 51.6321 53.7809 51.6321C53.0678 51.6321 52.4457 51.5 51.9144 51.2358C51.3832 50.9687 50.9712 50.598 50.6786 50.1236C50.386 49.6491 50.2397 49.0994 50.2397 48.4744V42.7727H51.8207V48.3423C51.8207 48.706 51.9002 49.0298 52.0593 49.3139C52.2212 49.598 52.4485 49.821 52.7411 49.983C53.0337 50.142 53.3803 50.2216 53.7809 50.2216C54.1815 50.2216 54.5281 50.142 54.8207 49.983C55.1161 49.821 55.3434 49.598 55.5025 49.3139C55.6616 49.0298 55.7411 48.706 55.7411 48.3423V42.7727ZM59.0405 51.5V42.7727H64.7166V44.098H60.6214V46.4673H64.4226V47.7926H60.6214V50.1747H64.7507V51.5H59.0405Z" fill="black"/>
<path d="M73.8232 46.8232C73.7256 46.9209 73.7256 47.0791 73.8232 47.1768L75.4142 48.7678C75.5118 48.8654 75.6701 48.8654 75.7678 48.7678C75.8654 48.6701 75.8654 48.5118 75.7678 48.4142L74.3536 47L75.7678 45.5858C75.8654 45.4882 75.8654 45.3299 75.7678 45.2322C75.6701 45.1346 75.5118 45.1346 75.4142 45.2322L73.8232 46.8232ZM90 46.75H89.5V47.25H90V46.75ZM88.5 46.75H87.5V47.25H88.5V46.75ZM86.5 46.75H85.5V47.25H86.5V46.75ZM84.5 46.75H83.5V47.25H84.5V46.75ZM82.5 46.75H81.5V47.25H82.5V46.75ZM80.5 46.75H79.5V47.25H80.5V46.75ZM78.5 46.75H77.5V47.25H78.5V46.75ZM76.5 46.75H75.5V47.25H76.5V46.75ZM74.5 46.75H74V47.25H74.5V46.75ZM73.6464 46.6464C73.4512 46.8417 73.4512 47.1583 73.6464 47.3536L76.8284 50.5355C77.0237 50.7308 77.3403 50.7308 77.5355 50.5355C77.7308 50.3403 77.7308 50.0237 77.5355 49.8284L74.7071 47L77.5355 44.1716C77.7308 43.9763 77.7308 43.6597 77.5355 43.4645C77.3403 43.2692 77.0237 43.2692 76.8284 43.4645L73.6464 46.6464ZM90 46.5H89.5V47.5H90V46.5ZM88.5 46.5H87.5V47.5H88.5V46.5ZM86.5 46.5H85.5V47.5H86.5V46.5ZM84.5 46.5H83.5V47.5H84.5V46.5ZM82.5 46.5H81.5V47.5H82.5V46.5ZM80.5 46.5H79.5V47.5H80.5V46.5ZM78.5 46.5H77.5V47.5H78.5V46.5ZM76.5 46.5H75.5V47.5H76.5V46.5ZM74.5 46.5H74V47.5H74.5V46.5Z" fill="black"/>
<path d="M99.0568 20V11.2727H104.29V12.2102H100.114V15.1591H103.898V16.0966H100.114V20H99.0568ZM106.1 20V11.2727H109.049C109.73 11.2727 110.29 11.3892 110.728 11.6222C111.165 11.8523 111.489 12.169 111.699 12.5724C111.909 12.9759 112.015 13.4347 112.015 13.9489C112.015 14.4631 111.909 14.919 111.699 15.3168C111.489 15.7145 111.167 16.027 110.732 16.2543C110.297 16.4787 109.742 16.5909 109.066 16.5909H106.679V15.6364H109.032C109.498 15.6364 109.873 15.5682 110.157 15.4318C110.444 15.2955 110.651 15.1023 110.779 14.8523C110.909 14.5994 110.975 14.2983 110.975 13.9489C110.975 13.5994 110.909 13.294 110.779 13.0327C110.648 12.7713 110.439 12.5696 110.152 12.4276C109.865 12.2827 109.486 12.2102 109.015 12.2102H107.157V20H106.1ZM110.208 16.0795L112.355 20H111.128L109.015 16.0795H110.208ZM121.139 15.6364C121.139 16.5568 120.973 17.3523 120.641 18.0227C120.308 18.6932 119.852 19.2102 119.273 19.5739C118.693 19.9375 118.031 20.1193 117.287 20.1193C116.543 20.1193 115.881 19.9375 115.301 19.5739C114.722 19.2102 114.266 18.6932 113.933 18.0227C113.601 17.3523 113.435 16.5568 113.435 15.6364C113.435 14.7159 113.601 13.9205 113.933 13.25C114.266 12.5795 114.722 12.0625 115.301 11.6989C115.881 11.3352 116.543 11.1534 117.287 11.1534C118.031 11.1534 118.693 11.3352 119.273 11.6989C119.852 12.0625 120.308 12.5795 120.641 13.25C120.973 13.9205 121.139 14.7159 121.139 15.6364ZM120.116 15.6364C120.116 14.8807 119.99 14.2429 119.737 13.723C119.487 13.2031 119.148 12.8097 118.719 12.5426C118.293 12.2756 117.815 12.142 117.287 12.142C116.759 12.142 116.28 12.2756 115.851 12.5426C115.425 12.8097 115.085 13.2031 114.832 13.723C114.582 14.2429 114.457 14.8807 114.457 15.6364C114.457 16.392 114.582 17.0298 114.832 17.5497C115.085 18.0696 115.425 18.4631 115.851 18.7301C116.28 18.9972 116.759 19.1307 117.287 19.1307C117.815 19.1307 118.293 18.9972 118.719 18.7301C119.148 18.4631 119.487 18.0696 119.737 17.5497C119.99 17.0298 120.116 16.392 120.116 15.6364ZM129.837 11.2727V20H128.814L124.058 13.1477H123.973V20H122.916V11.2727H123.939L128.712 18.142H128.797V11.2727H129.837ZM131.474 12.2102V11.2727H138.02V12.2102H135.275V20H134.218V12.2102H131.474Z" fill="#5F5F5F"/>
<rect width="16" height="32" transform="translate(102 31)" fill="#D9D9D9"/>
<path d="M109.091 51.6236C108.673 51.6236 108.301 51.5511 107.974 51.4062C107.648 51.2585 107.389 51.0412 107.199 50.7543C107.011 50.4645 106.918 50.1037 106.918 49.6719C106.918 49.3082 106.984 49.0028 107.118 48.7557C107.251 48.5085 107.433 48.3097 107.663 48.1591C107.893 48.0085 108.155 47.8949 108.447 47.8182C108.743 47.7415 109.053 47.6875 109.376 47.6562C109.757 47.6165 110.064 47.5795 110.297 47.5455C110.53 47.5085 110.699 47.4545 110.804 47.3835C110.909 47.3125 110.962 47.2074 110.962 47.0682V47.0426C110.962 46.7727 110.876 46.5639 110.706 46.4162C110.538 46.2685 110.3 46.1946 109.99 46.1946C109.663 46.1946 109.403 46.267 109.21 46.4119C109.017 46.554 108.889 46.733 108.827 46.9489L107.148 46.8125C107.233 46.4148 107.401 46.071 107.651 45.7812C107.901 45.4886 108.223 45.2642 108.618 45.108C109.016 44.9489 109.476 44.8693 109.999 44.8693C110.362 44.8693 110.71 44.9119 111.043 44.9972C111.378 45.0824 111.675 45.2145 111.933 45.3935C112.195 45.5724 112.401 45.8026 112.551 46.0838C112.702 46.3622 112.777 46.696 112.777 47.0852V51.5H111.055V50.5923H111.004C110.899 50.7969 110.759 50.9773 110.582 51.1335C110.406 51.2869 110.195 51.4077 109.947 51.4957C109.7 51.581 109.415 51.6236 109.091 51.6236ZM109.611 50.3707C109.878 50.3707 110.114 50.3182 110.318 50.2131C110.523 50.1051 110.683 49.9602 110.8 49.7784C110.916 49.5966 110.974 49.3906 110.974 49.1605V48.4659C110.918 48.5028 110.839 48.5369 110.74 48.5682C110.643 48.5966 110.534 48.6236 110.412 48.6491C110.29 48.6719 110.168 48.6932 110.045 48.7131C109.923 48.7301 109.812 48.7457 109.713 48.7599C109.5 48.7912 109.314 48.8409 109.155 48.9091C108.996 48.9773 108.872 49.0696 108.784 49.1861C108.696 49.2997 108.652 49.4418 108.652 49.6122C108.652 49.8594 108.741 50.0483 108.92 50.179C109.102 50.3068 109.332 50.3707 109.611 50.3707Z" fill="black"/>
<rect width="16" height="32" transform="translate(128 31)" fill="#D9D9D9"/>
<path d="M132.759 51.5V42.7727H134.574V46.054H134.629C134.709 45.8778 134.824 45.6989 134.974 45.517C135.128 45.3324 135.327 45.179 135.571 45.0568C135.818 44.9318 136.125 44.8693 136.491 44.8693C136.969 44.8693 137.409 44.9943 137.812 45.2443C138.216 45.4915 138.538 45.8651 138.78 46.3651C139.021 46.8622 139.142 47.4858 139.142 48.2358C139.142 48.9659 139.024 49.5824 138.788 50.0852C138.555 50.5852 138.237 50.9645 137.834 51.223C137.433 51.4787 136.984 51.6065 136.487 51.6065C136.135 51.6065 135.835 51.5483 135.588 51.4318C135.344 51.3153 135.143 51.169 134.987 50.9929C134.831 50.8139 134.712 50.6335 134.629 50.4517H134.548V51.5H132.759ZM134.536 48.2273C134.536 48.6165 134.589 48.956 134.697 49.2457C134.805 49.5355 134.962 49.7614 135.166 49.9233C135.371 50.0824 135.619 50.1619 135.912 50.1619C136.207 50.1619 136.457 50.081 136.662 49.919C136.866 49.7543 137.021 49.527 137.126 49.2372C137.234 48.9446 137.288 48.608 137.288 48.2273C137.288 47.8494 137.236 47.517 137.131 47.2301C137.026 46.9432 136.871 46.7187 136.666 46.5568C136.462 46.3949 136.21 46.3139 135.912 46.3139C135.616 46.3139 135.366 46.392 135.162 46.5483C134.96 46.7045 134.805 46.9261 134.697 47.2131C134.589 47.5 134.536 47.8381 134.536 48.2273Z" fill="black"/>
<rect width="16" height="32" transform="translate(154 31)" fill="#D9D9D9"/>
<path d="M161.682 51.6278C161.011 51.6278 160.435 51.4858 159.952 51.2017C159.472 50.9148 159.102 50.517 158.844 50.0085C158.588 49.5 158.46 48.9148 158.46 48.2528C158.46 47.5824 158.589 46.9943 158.848 46.4886C159.109 45.9801 159.48 45.5838 159.96 45.2997C160.44 45.0128 161.011 44.8693 161.673 44.8693C162.244 44.8693 162.744 44.973 163.173 45.1804C163.602 45.3878 163.942 45.679 164.192 46.054C164.442 46.429 164.58 46.8693 164.605 47.375H162.892C162.844 47.0483 162.716 46.7855 162.509 46.5866C162.304 46.3849 162.036 46.2841 161.703 46.2841C161.422 46.2841 161.176 46.3608 160.966 46.5142C160.759 46.6648 160.597 46.8849 160.48 47.1747C160.364 47.4645 160.305 47.8153 160.305 48.2273C160.305 48.6449 160.362 49 160.476 49.2926C160.592 49.5852 160.756 49.8082 160.966 49.9616C161.176 50.1151 161.422 50.1918 161.703 50.1918C161.911 50.1918 162.097 50.1491 162.261 50.0639C162.429 49.9787 162.567 49.8551 162.675 49.6932C162.786 49.5284 162.858 49.331 162.892 49.1009H164.605C164.577 49.6009 164.44 50.0412 164.196 50.4219C163.955 50.7997 163.621 51.0952 163.195 51.3082C162.768 51.5213 162.264 51.6278 161.682 51.6278Z" fill="black"/>
<rect width="16" height="32" transform="translate(180 31)" fill="#D9D9D9"/>
<path d="M187.136 51.6065C186.639 51.6065 186.189 51.4787 185.786 51.223C185.385 50.9645 185.067 50.5852 184.831 50.0852C184.598 49.5824 184.482 48.9659 184.482 48.2358C184.482 47.4858 184.602 46.8622 184.844 46.3651C185.085 45.8651 185.406 45.4915 185.807 45.2443C186.21 44.9943 186.652 44.8693 187.132 44.8693C187.499 44.8693 187.804 44.9318 188.048 45.0568C188.295 45.179 188.494 45.3324 188.645 45.517C188.798 45.6989 188.915 45.8778 188.994 46.054H189.05V42.7727H190.861V51.5H189.071V50.4517H188.994C188.909 50.6335 188.788 50.8139 188.632 50.9929C188.479 51.169 188.278 51.3153 188.031 51.4318C187.787 51.5483 187.489 51.6065 187.136 51.6065ZM187.712 50.1619C188.004 50.1619 188.251 50.0824 188.453 49.9233C188.658 49.7614 188.814 49.5355 188.922 49.2457C189.033 48.956 189.088 48.6165 189.088 48.2273C189.088 47.8381 189.034 47.5 188.926 47.2131C188.818 46.9261 188.662 46.7045 188.457 46.5483C188.253 46.392 188.004 46.3139 187.712 46.3139C187.413 46.3139 187.162 46.3949 186.957 46.5568C186.753 46.7187 186.598 46.9432 186.493 47.2301C186.388 47.517 186.335 47.8494 186.335 48.2273C186.335 48.608 186.388 48.9446 186.493 49.2372C186.601 49.527 186.756 49.7543 186.957 49.919C187.162 50.081 187.413 50.1619 187.712 50.1619Z" fill="black"/>
<path d="M168.994 83V74.2727H172.045C172.653 74.2727 173.155 74.3778 173.55 74.5881C173.945 74.7955 174.239 75.0753 174.432 75.4276C174.625 75.777 174.722 76.1648 174.722 76.5909C174.722 76.9659 174.655 77.2756 174.521 77.5199C174.391 77.7642 174.217 77.9574 174.001 78.0994C173.788 78.2415 173.557 78.3466 173.307 78.4148V78.5C173.574 78.517 173.842 78.6108 174.112 78.7812C174.382 78.9517 174.608 79.196 174.79 79.5142C174.972 79.8324 175.062 80.2216 175.062 80.6818C175.062 81.1193 174.963 81.5128 174.764 81.8622C174.565 82.2116 174.251 82.4886 173.822 82.6932C173.393 82.8977 172.835 83 172.148 83H168.994ZM170.051 82.0625H172.148C172.838 82.0625 173.328 81.929 173.618 81.6619C173.911 81.392 174.057 81.0653 174.057 80.6818C174.057 80.3864 173.982 80.1136 173.831 79.8636C173.68 79.6108 173.466 79.4091 173.188 79.2585C172.909 79.1051 172.58 79.0284 172.199 79.0284H170.051V82.0625ZM170.051 78.108H172.011C172.33 78.108 172.616 78.0455 172.872 77.9205C173.131 77.7955 173.335 77.6193 173.486 77.392C173.639 77.1648 173.716 76.8977 173.716 76.5909C173.716 76.2074 173.582 75.8821 173.315 75.6151C173.048 75.3452 172.625 75.2102 172.045 75.2102H170.051V78.108ZM177.157 83H176.049L179.254 74.2727H180.344L183.549 83H182.441L179.833 75.6534H179.765L177.157 83ZM177.566 79.5909H182.032V80.5284H177.566V79.5909ZM191.521 77H190.464C190.402 76.696 190.292 76.429 190.136 76.1989C189.983 75.9688 189.795 75.7756 189.574 75.6193C189.355 75.4602 189.112 75.3409 188.845 75.2614C188.578 75.1818 188.299 75.142 188.01 75.142C187.481 75.142 187.002 75.2756 186.574 75.5426C186.147 75.8097 185.808 76.2031 185.555 76.723C185.305 77.2429 185.18 77.8807 185.18 78.6364C185.18 79.392 185.305 80.0298 185.555 80.5497C185.808 81.0696 186.147 81.4631 186.574 81.7301C187.002 81.9972 187.481 82.1307 188.01 82.1307C188.299 82.1307 188.578 82.0909 188.845 82.0114C189.112 81.9318 189.355 81.8139 189.574 81.6577C189.795 81.4986 189.983 81.304 190.136 81.0739C190.292 80.8409 190.402 80.5739 190.464 80.2727H191.521C191.441 80.7187 191.297 81.1179 191.086 81.4702C190.876 81.8224 190.615 82.1222 190.302 82.3693C189.99 82.6136 189.639 82.7997 189.25 82.9276C188.863 83.0554 188.45 83.1193 188.01 83.1193C187.265 83.1193 186.603 82.9375 186.024 82.5739C185.444 82.2102 184.988 81.6932 184.656 81.0227C184.324 80.3523 184.157 79.5568 184.157 78.6364C184.157 77.7159 184.324 76.9205 184.656 76.25C184.988 75.5795 185.444 75.0625 186.024 74.6989C186.603 74.3352 187.265 74.1534 188.01 74.1534C188.45 74.1534 188.863 74.2173 189.25 74.3452C189.639 74.473 189.99 74.6605 190.302 74.9077C190.615 75.152 190.876 75.4503 191.086 75.8026C191.297 76.152 191.441 76.5511 191.521 77ZM193.229 83V74.2727H194.286V78.6023H194.388L198.308 74.2727H199.689L196.024 78.2102L199.689 83H198.411L195.376 78.9432L194.286 80.1705V83H193.229Z" fill="#5F5F5F"/>
<path d="M207.823 46.8232C207.726 46.9209 207.726 47.0791 207.823 47.1768L209.414 48.7678C209.512 48.8654 209.67 48.8654 209.768 48.7678C209.865 48.6701 209.865 48.5118 209.768 48.4142L208.354 47L209.768 45.5858C209.865 45.4882 209.865 45.3299 209.768 45.2322C209.67 45.1346 209.512 45.1346 209.414 45.2322L207.823 46.8232ZM224 46.75H223.5V47.25H224V46.75ZM222.5 46.75H221.5V47.25H222.5V46.75ZM220.5 46.75H219.5V47.25H220.5V46.75ZM218.5 46.75H217.5V47.25H218.5V46.75ZM216.5 46.75H215.5V47.25H216.5V46.75ZM214.5 46.75H213.5V47.25H214.5V46.75ZM212.5 46.75H211.5V47.25H212.5V46.75ZM210.5 46.75H209.5V47.25H210.5V46.75ZM208.5 46.75H208V47.25H208.5V46.75ZM207.646 46.6464C207.451 46.8417 207.451 47.1583 207.646 47.3536L210.828 50.5355C211.024 50.7308 211.34 50.7308 211.536 50.5355C211.731 50.3403 211.731 50.0237 211.536 49.8284L208.707 47L211.536 44.1716C211.731 43.9763 211.731 43.6597 211.536 43.4645C211.34 43.2692 211.024 43.2692 210.828 43.4645L207.646 46.6464ZM224 46.5H223.5V47.5H224V46.5ZM222.5 46.5H221.5V47.5H222.5V46.5ZM220.5 46.5H219.5V47.5H220.5V46.5ZM218.5 46.5H217.5V47.5H218.5V46.5ZM216.5 46.5H215.5V47.5H216.5V46.5ZM214.5 46.5H213.5V47.5H214.5V46.5ZM212.5 46.5H211.5V47.5H212.5V46.5ZM210.5 46.5H209.5V47.5H210.5V46.5ZM208.5 46.5H208V47.5H208.5V46.5Z" fill="black"/>
<path d="M232.861 51.5V42.7727H238.537V44.098H234.442V46.4673H238.243V47.7926H234.442V50.1747H238.571V51.5H232.861ZM247.322 42.7727V51.5H245.915L241.803 45.5554H241.731V51.5H240.15V42.7727H241.565L245.673 48.7216H245.749V42.7727H247.322ZM252.296 48.5682H253.728L254.576 49.6676L255.181 50.3835L256.634 52.25H255.1L254.111 50.9972L253.689 50.4006L252.296 48.5682ZM256.843 47.1364C256.843 48.0767 256.667 48.8821 256.314 49.5526C255.965 50.2202 255.488 50.7315 254.882 51.0866C254.28 51.4418 253.597 51.6193 252.833 51.6193C252.069 51.6193 251.384 51.4418 250.779 51.0866C250.176 50.7287 249.699 50.2159 249.347 49.5483C248.998 48.8778 248.823 48.0739 248.823 47.1364C248.823 46.196 248.998 45.392 249.347 44.7244C249.699 44.054 250.176 43.5412 250.779 43.1861C251.384 42.831 252.069 42.6534 252.833 42.6534C253.597 42.6534 254.28 42.831 254.882 43.1861C255.488 43.5412 255.965 44.054 256.314 44.7244C256.667 45.392 256.843 46.196 256.843 47.1364ZM255.253 47.1364C255.253 46.4744 255.15 45.9162 254.942 45.4616C254.738 45.0043 254.453 44.6591 254.09 44.4261C253.726 44.1903 253.307 44.0724 252.833 44.0724C252.358 44.0724 251.939 44.1903 251.576 44.4261C251.212 44.6591 250.926 45.0043 250.719 45.4616C250.515 45.9162 250.412 46.4744 250.412 47.1364C250.412 47.7983 250.515 48.358 250.719 48.8153C250.926 49.2699 251.212 49.6151 251.576 49.8509C251.939 50.0838 252.358 50.2003 252.833 50.2003C253.307 50.2003 253.726 50.0838 254.09 49.8509C254.453 49.6151 254.738 49.2699 254.942 48.8153C255.15 48.358 255.253 47.7983 255.253 47.1364ZM263.85 42.7727H265.431V48.4744C265.431 49.0994 265.284 49.6491 264.988 50.1236C264.696 50.598 264.284 50.9687 263.752 51.2358C263.221 51.5 262.6 51.6321 261.89 51.6321C261.177 51.6321 260.555 51.5 260.024 51.2358C259.493 50.9687 259.081 50.598 258.788 50.1236C258.495 49.6491 258.349 49.0994 258.349 48.4744V42.7727H259.93V48.3423C259.93 48.706 260.01 49.0298 260.169 49.3139C260.331 49.598 260.558 49.821 260.85 49.983C261.143 50.142 261.49 50.2216 261.89 50.2216C262.291 50.2216 262.637 50.142 262.93 49.983C263.225 49.821 263.453 49.598 263.612 49.3139C263.771 49.0298 263.85 48.706 263.85 48.3423V42.7727ZM267.15 51.5V42.7727H272.826V44.098H268.731V46.4673H272.532V47.7926H268.731V50.1747H272.86V51.5H267.15ZM279.94 42.7727H281.521V48.4744C281.521 49.0994 281.374 49.6491 281.078 50.1236C280.786 50.598 280.374 50.9687 279.842 51.2358C279.311 51.5 278.69 51.6321 277.98 51.6321C277.267 51.6321 276.645 51.5 276.114 51.2358C275.582 50.9687 275.17 50.598 274.878 50.1236C274.585 49.6491 274.439 49.0994 274.439 48.4744V42.7727H276.02V48.3423C276.02 48.706 276.099 49.0298 276.259 49.3139C276.42 49.598 276.648 49.821 276.94 49.983C277.233 50.142 277.58 50.2216 277.98 50.2216C278.381 50.2216 278.727 50.142 279.02 49.983C279.315 49.821 279.543 49.598 279.702 49.3139C279.861 49.0298 279.94 48.706 279.94 48.3423V42.7727ZM283.24 51.5V42.7727H288.916V44.098H284.821V46.4673H288.622V47.7926H284.821V50.1747H288.95V51.5H283.24Z" fill="black"/>
</g>
<defs>
<clipPath id="clip0_5_90">
<rect width="298" height="94" fill="white"/>
</clipPath>
</defs>
</svg>
