<svg width="237" height="94" viewBox="0 0 237 94" fill="none" xmlns="http://www.w3.org/2000/svg">
<g clip-path="url(#clip0_4_2)">
<rect width="237" height="94" fill="white"/>
<path d="M11.8182 51.5H8.8608V42.7727H11.8778C12.7443 42.7727 13.4886 42.9474 14.1108 43.2969C14.7358 43.6435 15.2159 44.142 15.5511 44.7926C15.8864 45.4432 16.054 46.2216 16.054 47.1278C16.054 48.0369 15.8849 48.8182 15.5469 49.4716C15.2116 50.125 14.7273 50.6264 14.0938 50.9759C13.4631 51.3253 12.7045 51.5 11.8182 51.5ZM10.4418 50.1321H11.7415C12.3494 50.1321 12.8565 50.0213 13.2628 49.7997C13.669 49.5753 13.9744 49.2415 14.179 48.7983C14.3835 48.3523 14.4858 47.7955 14.4858 47.1278C14.4858 46.4602 14.3835 45.9062 14.179 45.4659C13.9744 45.0227 13.6719 44.6918 13.2713 44.473C12.8736 44.2514 12.3793 44.1406 11.7884 44.1406H10.4418V50.1321ZM17.5561 51.5V42.7727H23.2322V44.098H19.1371V46.4673H22.9382V47.7926H19.1371V50.1747H23.2663V51.5H17.5561ZM28.0966 48.5682H29.5284L30.3764 49.6676L30.9815 50.3835L32.4347 52.25H30.9006L29.9119 50.9972L29.4901 50.4006L28.0966 48.5682ZM32.6435 47.1364C32.6435 48.0767 32.4673 48.8821 32.1151 49.5526C31.7656 50.2202 31.2884 50.7315 30.6832 51.0866C30.081 51.4418 29.3977 51.6193 28.6335 51.6193C27.8693 51.6193 27.1847 51.4418 26.5795 51.0866C25.9773 50.7287 25.5 50.2159 25.1477 49.5483C24.7983 48.8778 24.6236 48.0739 24.6236 47.1364C24.6236 46.196 24.7983 45.392 25.1477 44.7244C25.5 44.054 25.9773 43.5412 26.5795 43.1861C27.1847 42.831 27.8693 42.6534 28.6335 42.6534C29.3977 42.6534 30.081 42.831 30.6832 43.1861C31.2884 43.5412 31.7656 44.054 32.1151 44.7244C32.4673 45.392 32.6435 46.196 32.6435 47.1364ZM31.054 47.1364C31.054 46.4744 30.9503 45.9162 30.7429 45.4616C30.5384 45.0043 30.2543 44.6591 29.8906 44.4261C29.527 44.1903 29.108 44.0724 28.6335 44.0724C28.1591 44.0724 27.7401 44.1903 27.3764 44.4261C27.0128 44.6591 26.7273 45.0043 26.5199 45.4616C26.3153 45.9162 26.2131 46.4744 26.2131 47.1364C26.2131 47.7983 26.3153 48.358 26.5199 48.8153C26.7273 49.2699 27.0128 49.6151 27.3764 49.8509C27.7401 50.0838 28.1591 50.2003 28.6335 50.2003C29.108 50.2003 29.527 50.0838 29.8906 49.8509C30.2543 49.6151 30.5384 49.2699 30.7429 48.8153C30.9503 48.358 31.054 47.7983 31.054 47.1364ZM39.6513 42.7727H41.2322V48.4744C41.2322 49.0994 41.0845 49.6491 40.7891 50.1236C40.4964 50.598 40.0845 50.9687 39.5533 51.2358C39.022 51.5 38.4013 51.6321 37.6911 51.6321C36.978 51.6321 36.3558 51.5 35.8246 51.2358C35.2933 50.9687 34.8814 50.598 34.5888 50.1236C34.2962 49.6491 34.1499 49.0994 34.1499 48.4744V42.7727H35.7308V48.3423C35.7308 48.706 35.8104 49.0298 35.9695 49.3139C36.1314 49.598 36.3587 49.821 36.6513 49.983C36.9439 50.142 37.2905 50.2216 37.6911 50.2216C38.0916 50.2216 38.4382 50.142 38.7308 49.983C39.0263 49.821 39.2536 49.598 39.4126 49.3139C39.5717 49.0298 39.6513 48.706 39.6513 48.3423V42.7727ZM42.9506 51.5V42.7727H48.6268V44.098H44.5316V46.4673H48.3327V47.7926H44.5316V50.1747H48.6609V51.5H42.9506ZM55.7411 42.7727H57.3221V48.4744C57.3221 49.0994 57.1744 49.6491 56.8789 50.1236C56.5863 50.598 56.1744 50.9687 55.6431 51.2358C55.1119 51.5 54.4911 51.6321 53.7809 51.6321C53.0678 51.6321 52.4457 51.5 51.9144 51.2358C51.3832 50.9687 50.9712 50.598 50.6786 50.1236C50.386 49.6491 50.2397 49.0994 50.2397 48.4744V42.7727H51.8207V48.3423C51.8207 48.706 51.9002 49.0298 52.0593 49.3139C52.2212 49.598 52.4485 49.821 52.7411 49.983C53.0337 50.142 53.3803 50.2216 53.7809 50.2216C54.1815 50.2216 54.5281 50.142 54.8207 49.983C55.1161 49.821 55.3434 49.598 55.5025 49.3139C55.6616 49.0298 55.7411 48.706 55.7411 48.3423V42.7727ZM59.0405 51.5V42.7727H64.7166V44.098H60.6214V46.4673H64.4226V47.7926H60.6214V50.1747H64.7507V51.5H59.0405Z" fill="black"/>
<path d="M73.8232 46.8232C73.7256 46.9209 73.7256 47.0791 73.8232 47.1768L75.4142 48.7678C75.5118 48.8654 75.6701 48.8654 75.7678 48.7678C75.8654 48.6701 75.8654 48.5118 75.7678 48.4142L74.3536 47L75.7678 45.5858C75.8654 45.4882 75.8654 45.3299 75.7678 45.2322C75.6701 45.1346 75.5118 45.1346 75.4142 45.2322L73.8232 46.8232ZM90 46.75H89.5V47.25H90V46.75ZM88.5 46.75H87.5V47.25H88.5V46.75ZM86.5 46.75H85.5V47.25H86.5V46.75ZM84.5 46.75H83.5V47.25H84.5V46.75ZM82.5 46.75H81.5V47.25H82.5V46.75ZM80.5 46.75H79.5V47.25H80.5V46.75ZM78.5 46.75H77.5V47.25H78.5V46.75ZM76.5 46.75H75.5V47.25H76.5V46.75ZM74.5 46.75H74V47.25H74.5V46.75ZM73.6464 46.6464C73.4512 46.8417 73.4512 47.1583 73.6464 47.3536L76.8284 50.5355C77.0237 50.7308 77.3403 50.7308 77.5355 50.5355C77.7308 50.3403 77.7308 50.0237 77.5355 49.8284L74.7071 47L77.5355 44.1716C77.7308 43.9763 77.7308 43.6597 77.5355 43.4645C77.3403 43.2692 77.0237 43.2692 76.8284 43.4645L73.6464 46.6464ZM90 46.5H89.5V47.5H90V46.5ZM88.5 46.5H87.5V47.5H88.5V46.5ZM86.5 46.5H85.5V47.5H86.5V46.5ZM84.5 46.5H83.5V47.5H84.5V46.5ZM82.5 46.5H81.5V47.5H82.5V46.5ZM80.5 46.5H79.5V47.5H80.5V46.5ZM78.5 46.5H77.5V47.5H78.5V46.5ZM76.5 46.5H75.5V47.5H76.5V46.5ZM74.5 46.5H74V47.5H74.5V46.5Z" fill="black"/>
<path d="M99.0568 20V11.2727H104.29V12.2102H100.114V15.1591H103.898V16.0966H100.114V20H99.0568ZM106.1 20V11.2727H109.049C109.73 11.2727 110.29 11.3892 110.728 11.6222C111.165 11.8523 111.489 12.169 111.699 12.5724C111.909 12.9759 112.015 13.4347 112.015 13.9489C112.015 14.4631 111.909 14.919 111.699 15.3168C111.489 15.7145 111.167 16.027 110.732 16.2543C110.297 16.4787 109.742 16.5909 109.066 16.5909H106.679V15.6364H109.032C109.498 15.6364 109.873 15.5682 110.157 15.4318C110.444 15.2955 110.651 15.1023 110.779 14.8523C110.909 14.5994 110.975 14.2983 110.975 13.9489C110.975 13.5994 110.909 13.294 110.779 13.0327C110.648 12.7713 110.439 12.5696 110.152 12.4276C109.865 12.2827 109.486 12.2102 109.015 12.2102H107.157V20H106.1ZM110.208 16.0795L112.355 20H111.128L109.015 16.0795H110.208ZM121.139 15.6364C121.139 16.5568 120.973 17.3523 120.641 18.0227C120.308 18.6932 119.852 19.2102 119.273 19.5739C118.693 19.9375 118.031 20.1193 117.287 20.1193C116.543 20.1193 115.881 19.9375 115.301 19.5739C114.722 19.2102 114.266 18.6932 113.933 18.0227C113.601 17.3523 113.435 16.5568 113.435 15.6364C113.435 14.7159 113.601 13.9205 113.933 13.25C114.266 12.5795 114.722 12.0625 115.301 11.6989C115.881 11.3352 116.543 11.1534 117.287 11.1534C118.031 11.1534 118.693 11.3352 119.273 11.6989C119.852 12.0625 120.308 12.5795 120.641 13.25C120.973 13.9205 121.139 14.7159 121.139 15.6364ZM120.116 15.6364C120.116 14.8807 119.99 14.2429 119.737 13.723C119.487 13.2031 119.148 12.8097 118.719 12.5426C118.293 12.2756 117.815 12.142 117.287 12.142C116.759 12.142 116.28 12.2756 115.851 12.5426C115.425 12.8097 115.085 13.2031 114.832 13.723C114.582 14.2429 114.457 14.8807 114.457 15.6364C114.457 16.392 114.582 17.0298 114.832 17.5497C115.085 18.0696 115.425 18.4631 115.851 18.7301C116.28 18.9972 116.759 19.1307 117.287 19.1307C117.815 19.1307 118.293 18.9972 118.719 18.7301C119.148 18.4631 119.487 18.0696 119.737 17.5497C119.99 17.0298 120.116 16.392 120.116 15.6364ZM129.837 11.2727V20H128.814L124.058 13.1477H123.973V20H122.916V11.2727H123.939L128.712 18.142H128.797V11.2727H129.837ZM131.474 12.2102V11.2727H138.02V12.2102H135.275V20H134.218V12.2102H131.474Z" fill="#5F5F5F"/>
<rect width="16" height="32" transform="translate(110.5 31)" fill="#D9D9D9"/>
<path d="M117.591 51.6236C117.173 51.6236 116.801 51.5511 116.474 51.4062C116.148 51.2585 115.889 51.0412 115.699 50.7543C115.511 50.4645 115.418 50.1037 115.418 49.6719C115.418 49.3082 115.484 49.0028 115.618 48.7557C115.751 48.5085 115.933 48.3097 116.163 48.1591C116.393 48.0085 116.655 47.8949 116.947 47.8182C117.243 47.7415 117.553 47.6875 117.876 47.6562C118.257 47.6165 118.564 47.5795 118.797 47.5455C119.03 47.5085 119.199 47.4545 119.304 47.3835C119.409 47.3125 119.462 47.2074 119.462 47.0682V47.0426C119.462 46.7727 119.376 46.5639 119.206 46.4162C119.038 46.2685 118.8 46.1946 118.49 46.1946C118.163 46.1946 117.903 46.267 117.71 46.4119C117.517 46.554 117.389 46.733 117.327 46.9489L115.648 46.8125C115.733 46.4148 115.901 46.071 116.151 45.7812C116.401 45.4886 116.723 45.2642 117.118 45.108C117.516 44.9489 117.976 44.8693 118.499 44.8693C118.862 44.8693 119.21 44.9119 119.543 44.9972C119.878 45.0824 120.175 45.2145 120.433 45.3935C120.695 45.5724 120.901 45.8026 121.051 46.0838C121.202 46.3622 121.277 46.696 121.277 47.0852V51.5H119.555V50.5923H119.504C119.399 50.7969 119.259 50.9773 119.082 51.1335C118.906 51.2869 118.695 51.4077 118.447 51.4957C118.2 51.581 117.915 51.6236 117.591 51.6236ZM118.111 50.3707C118.378 50.3707 118.614 50.3182 118.818 50.2131C119.023 50.1051 119.183 49.9602 119.3 49.7784C119.416 49.5966 119.474 49.3906 119.474 49.1605V48.4659C119.418 48.5028 119.339 48.5369 119.24 48.5682C119.143 48.5966 119.034 48.6236 118.912 48.6491C118.79 48.6719 118.668 48.6932 118.545 48.7131C118.423 48.7301 118.312 48.7457 118.213 48.7599C118 48.7912 117.814 48.8409 117.655 48.9091C117.496 48.9773 117.372 49.0696 117.284 49.1861C117.196 49.2997 117.152 49.4418 117.152 49.6122C117.152 49.8594 117.241 50.0483 117.42 50.179C117.602 50.3068 117.832 50.3707 118.111 50.3707Z" fill="black"/>
<path d="M107.994 83V74.2727H111.045C111.653 74.2727 112.155 74.3778 112.55 74.5881C112.945 74.7955 113.239 75.0753 113.432 75.4276C113.625 75.777 113.722 76.1648 113.722 76.5909C113.722 76.9659 113.655 77.2756 113.521 77.5199C113.391 77.7642 113.217 77.9574 113.001 78.0994C112.788 78.2415 112.557 78.3466 112.307 78.4148V78.5C112.574 78.517 112.842 78.6108 113.112 78.7812C113.382 78.9517 113.608 79.196 113.79 79.5142C113.972 79.8324 114.062 80.2216 114.062 80.6818C114.062 81.1193 113.963 81.5128 113.764 81.8622C113.565 82.2116 113.251 82.4886 112.822 82.6932C112.393 82.8977 111.835 83 111.148 83H107.994ZM109.051 82.0625H111.148C111.838 82.0625 112.328 81.929 112.618 81.6619C112.911 81.392 113.057 81.0653 113.057 80.6818C113.057 80.3864 112.982 80.1136 112.831 79.8636C112.68 79.6108 112.466 79.4091 112.188 79.2585C111.909 79.1051 111.58 79.0284 111.199 79.0284H109.051V82.0625ZM109.051 78.108H111.011C111.33 78.108 111.616 78.0455 111.872 77.9205C112.131 77.7955 112.335 77.6193 112.486 77.392C112.639 77.1648 112.716 76.8977 112.716 76.5909C112.716 76.2074 112.582 75.8821 112.315 75.6151C112.048 75.3452 111.625 75.2102 111.045 75.2102H109.051V78.108ZM116.157 83H115.049L118.254 74.2727H119.344L122.549 83H121.441L118.833 75.6534H118.765L116.157 83ZM116.566 79.5909H121.032V80.5284H116.566V79.5909ZM130.521 77H129.464C129.402 76.696 129.292 76.429 129.136 76.1989C128.983 75.9688 128.795 75.7756 128.574 75.6193C128.355 75.4602 128.112 75.3409 127.845 75.2614C127.578 75.1818 127.299 75.142 127.01 75.142C126.481 75.142 126.002 75.2756 125.574 75.5426C125.147 75.8097 124.808 76.2031 124.555 76.723C124.305 77.2429 124.18 77.8807 124.18 78.6364C124.18 79.392 124.305 80.0298 124.555 80.5497C124.808 81.0696 125.147 81.4631 125.574 81.7301C126.002 81.9972 126.481 82.1307 127.01 82.1307C127.299 82.1307 127.578 82.0909 127.845 82.0114C128.112 81.9318 128.355 81.8139 128.574 81.6577C128.795 81.4986 128.983 81.304 129.136 81.0739C129.292 80.8409 129.402 80.5739 129.464 80.2727H130.521C130.441 80.7187 130.297 81.1179 130.086 81.4702C129.876 81.8224 129.615 82.1222 129.302 82.3693C128.99 82.6136 128.639 82.7997 128.25 82.9276C127.863 83.0554 127.45 83.1193 127.01 83.1193C126.265 83.1193 125.603 82.9375 125.024 82.5739C124.444 82.2102 123.988 81.6932 123.656 81.0227C123.324 80.3523 123.157 79.5568 123.157 78.6364C123.157 77.7159 123.324 76.9205 123.656 76.25C123.988 75.5795 124.444 75.0625 125.024 74.6989C125.603 74.3352 126.265 74.1534 127.01 74.1534C127.45 74.1534 127.863 74.2173 128.25 74.3452C128.639 74.473 128.99 74.6605 129.302 74.9077C129.615 75.152 129.876 75.4503 130.086 75.8026C130.297 76.152 130.441 76.5511 130.521 77ZM132.229 83V74.2727H133.286V78.6023H133.388L137.308 74.2727H138.689L135.024 78.2102L138.689 83H137.411L134.376 78.9432L133.286 80.1705V83H132.229Z" fill="#5F5F5F"/>
<path d="M146.823 46.8232C146.726 46.9209 146.726 47.0791 146.823 47.1768L148.414 48.7678C148.512 48.8654 148.67 48.8654 148.768 48.7678C148.865 48.6701 148.865 48.5118 148.768 48.4142L147.354 47L148.768 45.5858C148.865 45.4882 148.865 45.3299 148.768 45.2322C148.67 45.1346 148.512 45.1346 148.414 45.2322L146.823 46.8232ZM163 46.75H162.5V47.25H163V46.75ZM161.5 46.75H160.5V47.25H161.5V46.75ZM159.5 46.75H158.5V47.25H159.5V46.75ZM157.5 46.75H156.5V47.25H157.5V46.75ZM155.5 46.75H154.5V47.25H155.5V46.75ZM153.5 46.75H152.5V47.25H153.5V46.75ZM151.5 46.75H150.5V47.25H151.5V46.75ZM149.5 46.75H148.5V47.25H149.5V46.75ZM147.5 46.75H147V47.25H147.5V46.75ZM146.646 46.6464C146.451 46.8417 146.451 47.1583 146.646 47.3536L149.828 50.5355C150.024 50.7308 150.34 50.7308 150.536 50.5355C150.731 50.3403 150.731 50.0237 150.536 49.8284L147.707 47L150.536 44.1716C150.731 43.9763 150.731 43.6597 150.536 43.4645C150.34 43.2692 150.024 43.2692 149.828 43.4645L146.646 46.6464ZM163 46.5H162.5V47.5H163V46.5ZM161.5 46.5H160.5V47.5H161.5V46.5ZM159.5 46.5H158.5V47.5H159.5V46.5ZM157.5 46.5H156.5V47.5H157.5V46.5ZM155.5 46.5H154.5V47.5H155.5V46.5ZM153.5 46.5H152.5V47.5H153.5V46.5ZM151.5 46.5H150.5V47.5H151.5V46.5ZM149.5 46.5H148.5V47.5H149.5V46.5ZM147.5 46.5H147V47.5H147.5V46.5Z" fill="black"/>
<path d="M171.861 51.5V42.7727H177.537V44.098H173.442V46.4673H177.243V47.7926H173.442V50.1747H177.571V51.5H171.861ZM186.322 42.7727V51.5H184.915L180.803 45.5554H180.731V51.5H179.15V42.7727H180.565L184.673 48.7216H184.749V42.7727H186.322ZM191.296 48.5682H192.728L193.576 49.6676L194.181 50.3835L195.634 52.25H194.1L193.111 50.9972L192.689 50.4006L191.296 48.5682ZM195.843 47.1364C195.843 48.0767 195.667 48.8821 195.314 49.5526C194.965 50.2202 194.488 50.7315 193.882 51.0866C193.28 51.4418 192.597 51.6193 191.833 51.6193C191.069 51.6193 190.384 51.4418 189.779 51.0866C189.176 50.7287 188.699 50.2159 188.347 49.5483C187.998 48.8778 187.823 48.0739 187.823 47.1364C187.823 46.196 187.998 45.392 188.347 44.7244C188.699 44.054 189.176 43.5412 189.779 43.1861C190.384 42.831 191.069 42.6534 191.833 42.6534C192.597 42.6534 193.28 42.831 193.882 43.1861C194.488 43.5412 194.965 44.054 195.314 44.7244C195.667 45.392 195.843 46.196 195.843 47.1364ZM194.253 47.1364C194.253 46.4744 194.15 45.9162 193.942 45.4616C193.738 45.0043 193.453 44.6591 193.09 44.4261C192.726 44.1903 192.307 44.0724 191.833 44.0724C191.358 44.0724 190.939 44.1903 190.576 44.4261C190.212 44.6591 189.926 45.0043 189.719 45.4616C189.515 45.9162 189.412 46.4744 189.412 47.1364C189.412 47.7983 189.515 48.358 189.719 48.8153C189.926 49.2699 190.212 49.6151 190.576 49.8509C190.939 50.0838 191.358 50.2003 191.833 50.2003C192.307 50.2003 192.726 50.0838 193.09 49.8509C193.453 49.6151 193.738 49.2699 193.942 48.8153C194.15 48.358 194.253 47.7983 194.253 47.1364ZM202.85 42.7727H204.431V48.4744C204.431 49.0994 204.284 49.6491 203.988 50.1236C203.696 50.598 203.284 50.9687 202.752 51.2358C202.221 51.5 201.6 51.6321 200.89 51.6321C200.177 51.6321 199.555 51.5 199.024 51.2358C198.493 50.9687 198.081 50.598 197.788 50.1236C197.495 49.6491 197.349 49.0994 197.349 48.4744V42.7727H198.93V48.3423C198.93 48.706 199.01 49.0298 199.169 49.3139C199.331 49.598 199.558 49.821 199.85 49.983C200.143 50.142 200.49 50.2216 200.89 50.2216C201.291 50.2216 201.637 50.142 201.93 49.983C202.225 49.821 202.453 49.598 202.612 49.3139C202.771 49.0298 202.85 48.706 202.85 48.3423V42.7727ZM206.15 51.5V42.7727H211.826V44.098H207.731V46.4673H211.532V47.7926H207.731V50.1747H211.86V51.5H206.15ZM218.94 42.7727H220.521V48.4744C220.521 49.0994 220.374 49.6491 220.078 50.1236C219.786 50.598 219.374 50.9687 218.842 51.2358C218.311 51.5 217.69 51.6321 216.98 51.6321C216.267 51.6321 215.645 51.5 215.114 51.2358C214.582 50.9687 214.17 50.598 213.878 50.1236C213.585 49.6491 213.439 49.0994 213.439 48.4744V42.7727H215.02V48.3423C215.02 48.706 215.099 49.0298 215.259 49.3139C215.42 49.598 215.648 49.821 215.94 49.983C216.233 50.142 216.58 50.2216 216.98 50.2216C217.381 50.2216 217.727 50.142 218.02 49.983C218.315 49.821 218.543 49.598 218.702 49.3139C218.861 49.0298 218.94 48.706 218.94 48.3423V42.7727ZM222.24 51.5V42.7727H227.916V44.098H223.821V46.4673H227.622V47.7926H223.821V50.1747H227.95V51.5H222.24Z" fill="black"/>
</g>
<defs>
<clipPath id="clip0_4_2">
<rect width="237" height="94" fill="white"/>
</clipPath>
</defs>
</svg>
