<svg width="376" height="80" viewBox="0 0 376 80" fill="none" xmlns="http://www.w3.org/2000/svg">
<g clip-path="url(#clip0_1_21)">
<rect width="376" height="80" fill="white"/>
<path d="M11.8182 44.5H8.8608V35.7727H11.8778C12.7443 35.7727 13.4886 35.9474 14.1108 36.2969C14.7358 36.6435 15.2159 37.142 15.5511 37.7926C15.8864 38.4432 16.054 39.2216 16.054 40.1278C16.054 41.0369 15.8849 41.8182 15.5469 42.4716C15.2116 43.125 14.7273 43.6264 14.0938 43.9759C13.4631 44.3253 12.7045 44.5 11.8182 44.5ZM10.4418 43.1321H11.7415C12.3494 43.1321 12.8565 43.0213 13.2628 42.7997C13.669 42.5753 13.9744 42.2415 14.179 41.7983C14.3835 41.3523 14.4858 40.7955 14.4858 40.1278C14.4858 39.4602 14.3835 38.9062 14.179 38.4659C13.9744 38.0227 13.6719 37.6918 13.2713 37.473C12.8736 37.2514 12.3793 37.1406 11.7884 37.1406H10.4418V43.1321ZM17.5561 44.5V35.7727H23.2322V37.098H19.1371V39.4673H22.9382V40.7926H19.1371V43.1747H23.2663V44.5H17.5561ZM28.0966 41.5682H29.5284L30.3764 42.6676L30.9815 43.3835L32.4347 45.25H30.9006L29.9119 43.9972L29.4901 43.4006L28.0966 41.5682ZM32.6435 40.1364C32.6435 41.0767 32.4673 41.8821 32.1151 42.5526C31.7656 43.2202 31.2884 43.7315 30.6832 44.0866C30.081 44.4418 29.3977 44.6193 28.6335 44.6193C27.8693 44.6193 27.1847 44.4418 26.5795 44.0866C25.9773 43.7287 25.5 43.2159 25.1477 42.5483C24.7983 41.8778 24.6236 41.0739 24.6236 40.1364C24.6236 39.196 24.7983 38.392 25.1477 37.7244C25.5 37.054 25.9773 36.5412 26.5795 36.1861C27.1847 35.831 27.8693 35.6534 28.6335 35.6534C29.3977 35.6534 30.081 35.831 30.6832 36.1861C31.2884 36.5412 31.7656 37.054 32.1151 37.7244C32.4673 38.392 32.6435 39.196 32.6435 40.1364ZM31.054 40.1364C31.054 39.4744 30.9503 38.9162 30.7429 38.4616C30.5384 38.0043 30.2543 37.6591 29.8906 37.4261C29.527 37.1903 29.108 37.0724 28.6335 37.0724C28.1591 37.0724 27.7401 37.1903 27.3764 37.4261C27.0128 37.6591 26.7273 38.0043 26.5199 38.4616C26.3153 38.9162 26.2131 39.4744 26.2131 40.1364C26.2131 40.7983 26.3153 41.358 26.5199 41.8153C26.7273 42.2699 27.0128 42.6151 27.3764 42.8509C27.7401 43.0838 28.1591 43.2003 28.6335 43.2003C29.108 43.2003 29.527 43.0838 29.8906 42.8509C30.2543 42.6151 30.5384 42.2699 30.7429 41.8153C30.9503 41.358 31.054 40.7983 31.054 40.1364ZM39.6513 35.7727H41.2322V41.4744C41.2322 42.0994 41.0845 42.6491 40.7891 43.1236C40.4964 43.598 40.0845 43.9687 39.5533 44.2358C39.022 44.5 38.4013 44.6321 37.6911 44.6321C36.978 44.6321 36.3558 44.5 35.8246 44.2358C35.2933 43.9687 34.8814 43.598 34.5888 43.1236C34.2962 42.6491 34.1499 42.0994 34.1499 41.4744V35.7727H35.7308V41.3423C35.7308 41.706 35.8104 42.0298 35.9695 42.3139C36.1314 42.598 36.3587 42.821 36.6513 42.983C36.9439 43.142 37.2905 43.2216 37.6911 43.2216C38.0916 43.2216 38.4382 43.142 38.7308 42.983C39.0263 42.821 39.2536 42.598 39.4126 42.3139C39.5717 42.0298 39.6513 41.706 39.6513 41.3423V35.7727ZM42.9506 44.5V35.7727H48.6268V37.098H44.5316V39.4673H48.3327V40.7926H44.5316V43.1747H48.6609V44.5H42.9506ZM55.7411 35.7727H57.3221V41.4744C57.3221 42.0994 57.1744 42.6491 56.8789 43.1236C56.5863 43.598 56.1744 43.9687 55.6431 44.2358C55.1119 44.5 54.4911 44.6321 53.7809 44.6321C53.0678 44.6321 52.4457 44.5 51.9144 44.2358C51.3832 43.9687 50.9712 43.598 50.6786 43.1236C50.386 42.6491 50.2397 42.0994 50.2397 41.4744V35.7727H51.8207V41.3423C51.8207 41.706 51.9002 42.0298 52.0593 42.3139C52.2212 42.598 52.4485 42.821 52.7411 42.983C53.0337 43.142 53.3803 43.2216 53.7809 43.2216C54.1815 43.2216 54.5281 43.142 54.8207 42.983C55.1161 42.821 55.3434 42.598 55.5025 42.3139C55.6616 42.0298 55.7411 41.706 55.7411 41.3423V35.7727ZM59.0405 44.5V35.7727H64.7166V37.098H60.6214V39.4673H64.4226V40.7926H60.6214V43.1747H64.7507V44.5H59.0405Z" fill="black"/>
<path d="M73.8232 39.8232C73.7256 39.9209 73.7256 40.0791 73.8232 40.1768L75.4142 41.7678C75.5118 41.8654 75.6701 41.8654 75.7678 41.7678C75.8654 41.6701 75.8654 41.5118 75.7678 41.4142L74.3536 40L75.7678 38.5858C75.8654 38.4882 75.8654 38.3299 75.7678 38.2322C75.6701 38.1346 75.5118 38.1346 75.4142 38.2322L73.8232 39.8232ZM90 39.75H89.5V40.25H90V39.75ZM88.5 39.75H87.5V40.25H88.5V39.75ZM86.5 39.75H85.5V40.25H86.5V39.75ZM84.5 39.75H83.5V40.25H84.5V39.75ZM82.5 39.75H81.5V40.25H82.5V39.75ZM80.5 39.75H79.5V40.25H80.5V39.75ZM78.5 39.75H77.5V40.25H78.5V39.75ZM76.5 39.75H75.5V40.25H76.5V39.75ZM74.5 39.75H74V40.25H74.5V39.75ZM73.6464 39.6464C73.4512 39.8417 73.4512 40.1583 73.6464 40.3536L76.8284 43.5355C77.0237 43.7308 77.3403 43.7308 77.5355 43.5355C77.7308 43.3403 77.7308 43.0237 77.5355 42.8284L74.7071 40L77.5355 37.1716C77.7308 36.9763 77.7308 36.6597 77.5355 36.4645C77.3403 36.2692 77.0237 36.2692 76.8284 36.4645L73.6464 39.6464ZM90 39.5H89.5V40.5H90V39.5ZM88.5 39.5H87.5V40.5H88.5V39.5ZM86.5 39.5H85.5V40.5H86.5V39.5ZM84.5 39.5H83.5V40.5H84.5V39.5ZM82.5 39.5H81.5V40.5H82.5V39.5ZM80.5 39.5H79.5V40.5H80.5V39.5ZM78.5 39.5H77.5V40.5H78.5V39.5ZM76.5 39.5H75.5V40.5H76.5V39.5ZM74.5 39.5H74V40.5H74.5V39.5Z" fill="black"/>
<rect x="102" y="24" width="16" height="32" fill="#D9D9D9"/>
<rect x="128" y="24" width="16" height="32" fill="#D9D9D9"/>
<rect x="154" y="24" width="16" height="32" fill="#D9D9D9"/>
<rect x="180" y="24" width="16" height="32" fill="#D9D9D9"/>
<rect x="206" y="24" width="16" height="32" fill="#D9D9D9"/>
<rect x="232" y="24" width="16" height="32" fill="#D9D9D9"/>
<rect x="258" y="24" width="16" height="32" fill="#D9D9D9"/>
<path d="M102.557 20V11.2727H107.79V12.2102H103.614V15.1591H107.398V16.0966H103.614V20H102.557ZM109.6 20V11.2727H112.549C113.23 11.2727 113.79 11.3892 114.228 11.6222C114.665 11.8523 114.989 12.169 115.199 12.5724C115.409 12.9759 115.515 13.4347 115.515 13.9489C115.515 14.4631 115.409 14.919 115.199 15.3168C114.989 15.7145 114.667 16.027 114.232 16.2543C113.797 16.4787 113.242 16.5909 112.566 16.5909H110.179V15.6364H112.532C112.998 15.6364 113.373 15.5682 113.657 15.4318C113.944 15.2955 114.151 15.1023 114.279 14.8523C114.409 14.5994 114.475 14.2983 114.475 13.9489C114.475 13.5994 114.409 13.294 114.279 13.0327C114.148 12.7713 113.939 12.5696 113.652 12.4276C113.365 12.2827 112.986 12.2102 112.515 12.2102H110.657V20H109.6ZM113.708 16.0795L115.855 20H114.628L112.515 16.0795H113.708ZM124.639 15.6364C124.639 16.5568 124.473 17.3523 124.141 18.0227C123.808 18.6932 123.352 19.2102 122.773 19.5739C122.193 19.9375 121.531 20.1193 120.787 20.1193C120.043 20.1193 119.381 19.9375 118.801 19.5739C118.222 19.2102 117.766 18.6932 117.433 18.0227C117.101 17.3523 116.935 16.5568 116.935 15.6364C116.935 14.7159 117.101 13.9205 117.433 13.25C117.766 12.5795 118.222 12.0625 118.801 11.6989C119.381 11.3352 120.043 11.1534 120.787 11.1534C121.531 11.1534 122.193 11.3352 122.773 11.6989C123.352 12.0625 123.808 12.5795 124.141 13.25C124.473 13.9205 124.639 14.7159 124.639 15.6364ZM123.616 15.6364C123.616 14.8807 123.49 14.2429 123.237 13.723C122.987 13.2031 122.648 12.8097 122.219 12.5426C121.793 12.2756 121.315 12.142 120.787 12.142C120.259 12.142 119.78 12.2756 119.351 12.5426C118.925 12.8097 118.585 13.2031 118.332 13.723C118.082 14.2429 117.957 14.8807 117.957 15.6364C117.957 16.392 118.082 17.0298 118.332 17.5497C118.585 18.0696 118.925 18.4631 119.351 18.7301C119.78 18.9972 120.259 19.1307 120.787 19.1307C121.315 19.1307 121.793 18.9972 122.219 18.7301C122.648 18.4631 122.987 18.0696 123.237 17.5497C123.49 17.0298 123.616 16.392 123.616 15.6364ZM133.337 11.2727V20H132.314L127.558 13.1477H127.473V20H126.416V11.2727H127.439L132.212 18.142H132.297V11.2727H133.337ZM134.974 12.2102V11.2727H141.52V12.2102H138.775V20H137.718V12.2102H134.974Z" fill="#5F5F5F"/>
<path d="M243.494 69V60.2727H246.545C247.153 60.2727 247.655 60.3778 248.05 60.5881C248.445 60.7955 248.739 61.0753 248.932 61.4276C249.125 61.777 249.222 62.1648 249.222 62.5909C249.222 62.9659 249.155 63.2756 249.021 63.5199C248.891 63.7642 248.717 63.9574 248.501 64.0994C248.288 64.2415 248.057 64.3466 247.807 64.4148V64.5C248.074 64.517 248.342 64.6108 248.612 64.7812C248.882 64.9517 249.108 65.196 249.29 65.5142C249.472 65.8324 249.562 66.2216 249.562 66.6818C249.562 67.1193 249.463 67.5128 249.264 67.8622C249.065 68.2116 248.751 68.4886 248.322 68.6932C247.893 68.8977 247.335 69 246.648 69H243.494ZM244.551 68.0625H246.648C247.338 68.0625 247.828 67.929 248.118 67.6619C248.411 67.392 248.557 67.0653 248.557 66.6818C248.557 66.3864 248.482 66.1136 248.331 65.8636C248.18 65.6108 247.966 65.4091 247.688 65.2585C247.409 65.1051 247.08 65.0284 246.699 65.0284H244.551V68.0625ZM244.551 64.108H246.511C246.83 64.108 247.116 64.0455 247.372 63.9205C247.631 63.7955 247.835 63.6193 247.986 63.392C248.139 63.1648 248.216 62.8977 248.216 62.5909C248.216 62.2074 248.082 61.8821 247.815 61.6151C247.548 61.3452 247.125 61.2102 246.545 61.2102H244.551V64.108ZM251.657 69H250.549L253.754 60.2727H254.844L258.049 69H256.941L254.333 61.6534H254.265L251.657 69ZM252.066 65.5909H256.532V66.5284H252.066V65.5909ZM266.021 63H264.964C264.902 62.696 264.792 62.429 264.636 62.1989C264.483 61.9688 264.295 61.7756 264.074 61.6193C263.855 61.4602 263.612 61.3409 263.345 61.2614C263.078 61.1818 262.799 61.142 262.51 61.142C261.981 61.142 261.502 61.2756 261.074 61.5426C260.647 61.8097 260.308 62.2031 260.055 62.723C259.805 63.2429 259.68 63.8807 259.68 64.6364C259.68 65.392 259.805 66.0298 260.055 66.5497C260.308 67.0696 260.647 67.4631 261.074 67.7301C261.502 67.9972 261.981 68.1307 262.51 68.1307C262.799 68.1307 263.078 68.0909 263.345 68.0114C263.612 67.9318 263.855 67.8139 264.074 67.6577C264.295 67.4986 264.483 67.304 264.636 67.0739C264.792 66.8409 264.902 66.5739 264.964 66.2727H266.021C265.941 66.7187 265.797 67.1179 265.586 67.4702C265.376 67.8224 265.115 68.1222 264.802 68.3693C264.49 68.6136 264.139 68.7997 263.75 68.9276C263.363 69.0554 262.95 69.1193 262.51 69.1193C261.765 69.1193 261.103 68.9375 260.524 68.5739C259.944 68.2102 259.488 67.6932 259.156 67.0227C258.824 66.3523 258.657 65.5568 258.657 64.6364C258.657 63.7159 258.824 62.9205 259.156 62.25C259.488 61.5795 259.944 61.0625 260.524 60.6989C261.103 60.3352 261.765 60.1534 262.51 60.1534C262.95 60.1534 263.363 60.2173 263.75 60.3452C264.139 60.473 264.49 60.6605 264.802 60.9077C265.115 61.152 265.376 61.4503 265.586 61.8026C265.797 62.152 265.941 62.5511 266.021 63ZM267.729 69V60.2727H268.786V64.6023H268.888L272.808 60.2727H274.189L270.524 64.2102L274.189 69H272.911L269.876 64.9432L268.786 66.1705V69H267.729Z" fill="#5F5F5F"/>
<path d="M285.823 39.8232C285.726 39.9209 285.726 40.0791 285.823 40.1768L287.414 41.7678C287.512 41.8654 287.67 41.8654 287.768 41.7678C287.865 41.6701 287.865 41.5118 287.768 41.4142L286.354 40L287.768 38.5858C287.865 38.4882 287.865 38.3299 287.768 38.2322C287.67 38.1346 287.512 38.1346 287.414 38.2322L285.823 39.8232ZM302 39.75H301.5V40.25H302V39.75ZM300.5 39.75H299.5V40.25H300.5V39.75ZM298.5 39.75H297.5V40.25H298.5V39.75ZM296.5 39.75H295.5V40.25H296.5V39.75ZM294.5 39.75H293.5V40.25H294.5V39.75ZM292.5 39.75H291.5V40.25H292.5V39.75ZM290.5 39.75H289.5V40.25H290.5V39.75ZM288.5 39.75H287.5V40.25H288.5V39.75ZM286.5 39.75H286V40.25H286.5V39.75ZM285.646 39.6464C285.451 39.8417 285.451 40.1583 285.646 40.3536L288.828 43.5355C289.024 43.7308 289.34 43.7308 289.536 43.5355C289.731 43.3403 289.731 43.0237 289.536 42.8284L286.707 40L289.536 37.1716C289.731 36.9763 289.731 36.6597 289.536 36.4645C289.34 36.2692 289.024 36.2692 288.828 36.4645L285.646 39.6464ZM302 39.5H301.5V40.5H302V39.5ZM300.5 39.5H299.5V40.5H300.5V39.5ZM298.5 39.5H297.5V40.5H298.5V39.5ZM296.5 39.5H295.5V40.5H296.5V39.5ZM294.5 39.5H293.5V40.5H294.5V39.5ZM292.5 39.5H291.5V40.5H292.5V39.5ZM290.5 39.5H289.5V40.5H290.5V39.5ZM288.5 39.5H287.5V40.5H288.5V39.5ZM286.5 39.5H286V40.5H286.5V39.5Z" fill="black"/>
<path d="M310.861 44.5V35.7727H316.537V37.098H312.442V39.4673H316.243V40.7926H312.442V43.1747H316.571V44.5H310.861ZM325.322 35.7727V44.5H323.915L319.803 38.5554H319.731V44.5H318.15V35.7727H319.565L323.673 41.7216H323.749V35.7727H325.322ZM330.296 41.5682H331.728L332.576 42.6676L333.181 43.3835L334.634 45.25H333.1L332.111 43.9972L331.689 43.4006L330.296 41.5682ZM334.843 40.1364C334.843 41.0767 334.667 41.8821 334.314 42.5526C333.965 43.2202 333.488 43.7315 332.882 44.0866C332.28 44.4418 331.597 44.6193 330.833 44.6193C330.069 44.6193 329.384 44.4418 328.779 44.0866C328.176 43.7287 327.699 43.2159 327.347 42.5483C326.998 41.8778 326.823 41.0739 326.823 40.1364C326.823 39.196 326.998 38.392 327.347 37.7244C327.699 37.054 328.176 36.5412 328.779 36.1861C329.384 35.831 330.069 35.6534 330.833 35.6534C331.597 35.6534 332.28 35.831 332.882 36.1861C333.488 36.5412 333.965 37.054 334.314 37.7244C334.667 38.392 334.843 39.196 334.843 40.1364ZM333.253 40.1364C333.253 39.4744 333.15 38.9162 332.942 38.4616C332.738 38.0043 332.453 37.6591 332.09 37.4261C331.726 37.1903 331.307 37.0724 330.833 37.0724C330.358 37.0724 329.939 37.1903 329.576 37.4261C329.212 37.6591 328.926 38.0043 328.719 38.4616C328.515 38.9162 328.412 39.4744 328.412 40.1364C328.412 40.7983 328.515 41.358 328.719 41.8153C328.926 42.2699 329.212 42.6151 329.576 42.8509C329.939 43.0838 330.358 43.2003 330.833 43.2003C331.307 43.2003 331.726 43.0838 332.09 42.8509C332.453 42.6151 332.738 42.2699 332.942 41.8153C333.15 41.358 333.253 40.7983 333.253 40.1364ZM341.85 35.7727H343.431V41.4744C343.431 42.0994 343.284 42.6491 342.988 43.1236C342.696 43.598 342.284 43.9687 341.752 44.2358C341.221 44.5 340.6 44.6321 339.89 44.6321C339.177 44.6321 338.555 44.5 338.024 44.2358C337.493 43.9687 337.081 43.598 336.788 43.1236C336.495 42.6491 336.349 42.0994 336.349 41.4744V35.7727H337.93V41.3423C337.93 41.706 338.01 42.0298 338.169 42.3139C338.331 42.598 338.558 42.821 338.85 42.983C339.143 43.142 339.49 43.2216 339.89 43.2216C340.291 43.2216 340.637 43.142 340.93 42.983C341.225 42.821 341.453 42.598 341.612 42.3139C341.771 42.0298 341.85 41.706 341.85 41.3423V35.7727ZM345.15 44.5V35.7727H350.826V37.098H346.731V39.4673H350.532V40.7926H346.731V43.1747H350.86V44.5H345.15ZM357.94 35.7727H359.521V41.4744C359.521 42.0994 359.374 42.6491 359.078 43.1236C358.786 43.598 358.374 43.9687 357.842 44.2358C357.311 44.5 356.69 44.6321 355.98 44.6321C355.267 44.6321 354.645 44.5 354.114 44.2358C353.582 43.9687 353.17 43.598 352.878 43.1236C352.585 42.6491 352.439 42.0994 352.439 41.4744V35.7727H354.02V41.3423C354.02 41.706 354.099 42.0298 354.259 42.3139C354.42 42.598 354.648 42.821 354.94 42.983C355.233 43.142 355.58 43.2216 355.98 43.2216C356.381 43.2216 356.727 43.142 357.02 42.983C357.315 42.821 357.543 42.598 357.702 42.3139C357.861 42.0298 357.94 41.706 357.94 41.3423V35.7727ZM361.24 44.5V35.7727H366.916V37.098H362.821V39.4673H366.622V40.7926H362.821V43.1747H366.95V44.5H361.24Z" fill="black"/>
</g>
<defs>
<clipPath id="clip0_1_21">
<rect width="376" height="80" fill="white"/>
</clipPath>
</defs>
</svg>
