<svg width="246" height="94" viewBox="0 0 246 94" fill="none" xmlns="http://www.w3.org/2000/svg">
<g clip-path="url(#clip0_5_74)">
<rect width="246" height="94" fill="white"/>
<path d="M11.8182 51.5H8.8608V42.7727H11.8778C12.7443 42.7727 13.4886 42.9474 14.1108 43.2969C14.7358 43.6435 15.2159 44.142 15.5511 44.7926C15.8864 45.4432 16.054 46.2216 16.054 47.1278C16.054 48.0369 15.8849 48.8182 15.5469 49.4716C15.2116 50.125 14.7273 50.6264 14.0938 50.9759C13.4631 51.3253 12.7045 51.5 11.8182 51.5ZM10.4418 50.1321H11.7415C12.3494 50.1321 12.8565 50.0213 13.2628 49.7997C13.669 49.5753 13.9744 49.2415 14.179 48.7983C14.3835 48.3523 14.4858 47.7955 14.4858 47.1278C14.4858 46.4602 14.3835 45.9062 14.179 45.4659C13.9744 45.0227 13.6719 44.6918 13.2713 44.473C12.8736 44.2514 12.3793 44.1406 11.7884 44.1406H10.4418V50.1321ZM17.5561 51.5V42.7727H23.2322V44.098H19.1371V46.4673H22.9382V47.7926H19.1371V50.1747H23.2663V51.5H17.5561ZM28.0966 48.5682H29.5284L30.3764 49.6676L30.9815 50.3835L32.4347 52.25H30.9006L29.9119 50.9972L29.4901 50.4006L28.0966 48.5682ZM32.6435 47.1364C32.6435 48.0767 32.4673 48.8821 32.1151 49.5526C31.7656 50.2202 31.2884 50.7315 30.6832 51.0866C30.081 51.4418 29.3977 51.6193 28.6335 51.6193C27.8693 51.6193 27.1847 51.4418 26.5795 51.0866C25.9773 50.7287 25.5 50.2159 25.1477 49.5483C24.7983 48.8778 24.6236 48.0739 24.6236 47.1364C24.6236 46.196 24.7983 45.392 25.1477 44.7244C25.5 44.054 25.9773 43.5412 26.5795 43.1861C27.1847 42.831 27.8693 42.6534 28.6335 42.6534C29.3977 42.6534 30.081 42.831 30.6832 43.1861C31.2884 43.5412 31.7656 44.054 32.1151 44.7244C32.4673 45.392 32.6435 46.196 32.6435 47.1364ZM31.054 47.1364C31.054 46.4744 30.9503 45.9162 30.7429 45.4616C30.5384 45.0043 30.2543 44.6591 29.8906 44.4261C29.527 44.1903 29.108 44.0724 28.6335 44.0724C28.1591 44.0724 27.7401 44.1903 27.3764 44.4261C27.0128 44.6591 26.7273 45.0043 26.5199 45.4616C26.3153 45.9162 26.2131 46.4744 26.2131 47.1364C26.2131 47.7983 26.3153 48.358 26.5199 48.8153C26.7273 49.2699 27.0128 49.6151 27.3764 49.8509C27.7401 50.0838 28.1591 50.2003 28.6335 50.2003C29.108 50.2003 29.527 50.0838 29.8906 49.8509C30.2543 49.6151 30.5384 49.2699 30.7429 48.8153C30.9503 48.358 31.054 47.7983 31.054 47.1364ZM39.6513 42.7727H41.2322V48.4744C41.2322 49.0994 41.0845 49.6491 40.7891 50.1236C40.4964 50.598 40.0845 50.9687 39.5533 51.2358C39.022 51.5 38.4013 51.6321 37.6911 51.6321C36.978 51.6321 36.3558 51.5 35.8246 51.2358C35.2933 50.9687 34.8814 50.598 34.5888 50.1236C34.2962 49.6491 34.1499 49.0994 34.1499 48.4744V42.7727H35.7308V48.3423C35.7308 48.706 35.8104 49.0298 35.9695 49.3139C36.1314 49.598 36.3587 49.821 36.6513 49.983C36.9439 50.142 37.2905 50.2216 37.6911 50.2216C38.0916 50.2216 38.4382 50.142 38.7308 49.983C39.0263 49.821 39.2536 49.598 39.4126 49.3139C39.5717 49.0298 39.6513 48.706 39.6513 48.3423V42.7727ZM42.9506 51.5V42.7727H48.6268V44.098H44.5316V46.4673H48.3327V47.7926H44.5316V50.1747H48.6609V51.5H42.9506ZM55.7411 42.7727H57.3221V48.4744C57.3221 49.0994 57.1744 49.6491 56.8789 50.1236C56.5863 50.598 56.1744 50.9687 55.6431 51.2358C55.1119 51.5 54.4911 51.6321 53.7809 51.6321C53.0678 51.6321 52.4457 51.5 51.9144 51.2358C51.3832 50.9687 50.9712 50.598 50.6786 50.1236C50.386 49.6491 50.2397 49.0994 50.2397 48.4744V42.7727H51.8207V48.3423C51.8207 48.706 51.9002 49.0298 52.0593 49.3139C52.2212 49.598 52.4485 49.821 52.7411 49.983C53.0337 50.142 53.3803 50.2216 53.7809 50.2216C54.1815 50.2216 54.5281 50.142 54.8207 49.983C55.1161 49.821 55.3434 49.598 55.5025 49.3139C55.6616 49.0298 55.7411 48.706 55.7411 48.3423V42.7727ZM59.0405 51.5V42.7727H64.7166V44.098H60.6214V46.4673H64.4226V47.7926H60.6214V50.1747H64.7507V51.5H59.0405Z" fill="black"/>
<path d="M73.8232 46.8232C73.7256 46.9209 73.7256 47.0791 73.8232 47.1768L75.4142 48.7678C75.5118 48.8654 75.6701 48.8654 75.7678 48.7678C75.8654 48.6701 75.8654 48.5118 75.7678 48.4142L74.3536 47L75.7678 45.5858C75.8654 45.4882 75.8654 45.3299 75.7678 45.2322C75.6701 45.1346 75.5118 45.1346 75.4142 45.2322L73.8232 46.8232ZM90 46.75H89.5V47.25H90V46.75ZM88.5 46.75H87.5V47.25H88.5V46.75ZM86.5 46.75H85.5V47.25H86.5V46.75ZM84.5 46.75H83.5V47.25H84.5V46.75ZM82.5 46.75H81.5V47.25H82.5V46.75ZM80.5 46.75H79.5V47.25H80.5V46.75ZM78.5 46.75H77.5V47.25H78.5V46.75ZM76.5 46.75H75.5V47.25H76.5V46.75ZM74.5 46.75H74V47.25H74.5V46.75ZM73.6464 46.6464C73.4512 46.8417 73.4512 47.1583 73.6464 47.3536L76.8284 50.5355C77.0237 50.7308 77.3403 50.7308 77.5355 50.5355C77.7308 50.3403 77.7308 50.0237 77.5355 49.8284L74.7071 47L77.5355 44.1716C77.7308 43.9763 77.7308 43.6597 77.5355 43.4645C77.3403 43.2692 77.0237 43.2692 76.8284 43.4645L73.6464 46.6464ZM90 46.5H89.5V47.5H90V46.5ZM88.5 46.5H87.5V47.5H88.5V46.5ZM86.5 46.5H85.5V47.5H86.5V46.5ZM84.5 46.5H83.5V47.5H84.5V46.5ZM82.5 46.5H81.5V47.5H82.5V46.5ZM80.5 46.5H79.5V47.5H80.5V46.5ZM78.5 46.5H77.5V47.5H78.5V46.5ZM76.5 46.5H75.5V47.5H76.5V46.5ZM74.5 46.5H74V47.5H74.5V46.5Z" fill="black"/>
<path d="M99.0568 20V11.2727H104.29V12.2102H100.114V15.1591H103.898V16.0966H100.114V20H99.0568ZM106.1 20V11.2727H109.049C109.73 11.2727 110.29 11.3892 110.728 11.6222C111.165 11.8523 111.489 12.169 111.699 12.5724C111.909 12.9759 112.015 13.4347 112.015 13.9489C112.015 14.4631 111.909 14.919 111.699 15.3168C111.489 15.7145 111.167 16.027 110.732 16.2543C110.297 16.4787 109.742 16.5909 109.066 16.5909H106.679V15.6364H109.032C109.498 15.6364 109.873 15.5682 110.157 15.4318C110.444 15.2955 110.651 15.1023 110.779 14.8523C110.909 14.5994 110.975 14.2983 110.975 13.9489C110.975 13.5994 110.909 13.294 110.779 13.0327C110.648 12.7713 110.439 12.5696 110.152 12.4276C109.865 12.2827 109.486 12.2102 109.015 12.2102H107.157V20H106.1ZM110.208 16.0795L112.355 20H111.128L109.015 16.0795H110.208ZM121.139 15.6364C121.139 16.5568 120.973 17.3523 120.641 18.0227C120.308 18.6932 119.852 19.2102 119.273 19.5739C118.693 19.9375 118.031 20.1193 117.287 20.1193C116.543 20.1193 115.881 19.9375 115.301 19.5739C114.722 19.2102 114.266 18.6932 113.933 18.0227C113.601 17.3523 113.435 16.5568 113.435 15.6364C113.435 14.7159 113.601 13.9205 113.933 13.25C114.266 12.5795 114.722 12.0625 115.301 11.6989C115.881 11.3352 116.543 11.1534 117.287 11.1534C118.031 11.1534 118.693 11.3352 119.273 11.6989C119.852 12.0625 120.308 12.5795 120.641 13.25C120.973 13.9205 121.139 14.7159 121.139 15.6364ZM120.116 15.6364C120.116 14.8807 119.99 14.2429 119.737 13.723C119.487 13.2031 119.148 12.8097 118.719 12.5426C118.293 12.2756 117.815 12.142 117.287 12.142C116.759 12.142 116.28 12.2756 115.851 12.5426C115.425 12.8097 115.085 13.2031 114.832 13.723C114.582 14.2429 114.457 14.8807 114.457 15.6364C114.457 16.392 114.582 17.0298 114.832 17.5497C115.085 18.0696 115.425 18.4631 115.851 18.7301C116.28 18.9972 116.759 19.1307 117.287 19.1307C117.815 19.1307 118.293 18.9972 118.719 18.7301C119.148 18.4631 119.487 18.0696 119.737 17.5497C119.99 17.0298 120.116 16.392 120.116 15.6364ZM129.837 11.2727V20H128.814L124.058 13.1477H123.973V20H122.916V11.2727H123.939L128.712 18.142H128.797V11.2727H129.837ZM131.474 12.2102V11.2727H138.02V12.2102H135.275V20H134.218V12.2102H131.474Z" fill="#5F5F5F"/>
<rect width="16" height="32" transform="translate(102 31)" fill="#D9D9D9"/>
<path d="M109.091 51.6236C108.673 51.6236 108.301 51.5511 107.974 51.4062C107.648 51.2585 107.389 51.0412 107.199 50.7543C107.011 50.4645 106.918 50.1037 106.918 49.6719C106.918 49.3082 106.984 49.0028 107.118 48.7557C107.251 48.5085 107.433 48.3097 107.663 48.1591C107.893 48.0085 108.155 47.8949 108.447 47.8182C108.743 47.7415 109.053 47.6875 109.376 47.6562C109.757 47.6165 110.064 47.5795 110.297 47.5455C110.53 47.5085 110.699 47.4545 110.804 47.3835C110.909 47.3125 110.962 47.2074 110.962 47.0682V47.0426C110.962 46.7727 110.876 46.5639 110.706 46.4162C110.538 46.2685 110.3 46.1946 109.99 46.1946C109.663 46.1946 109.403 46.267 109.21 46.4119C109.017 46.554 108.889 46.733 108.827 46.9489L107.148 46.8125C107.233 46.4148 107.401 46.071 107.651 45.7812C107.901 45.4886 108.223 45.2642 108.618 45.108C109.016 44.9489 109.476 44.8693 109.999 44.8693C110.362 44.8693 110.71 44.9119 111.043 44.9972C111.378 45.0824 111.675 45.2145 111.933 45.3935C112.195 45.5724 112.401 45.8026 112.551 46.0838C112.702 46.3622 112.777 46.696 112.777 47.0852V51.5H111.055V50.5923H111.004C110.899 50.7969 110.759 50.9773 110.582 51.1335C110.406 51.2869 110.195 51.4077 109.947 51.4957C109.7 51.581 109.415 51.6236 109.091 51.6236ZM109.611 50.3707C109.878 50.3707 110.114 50.3182 110.318 50.2131C110.523 50.1051 110.683 49.9602 110.8 49.7784C110.916 49.5966 110.974 49.3906 110.974 49.1605V48.4659C110.918 48.5028 110.839 48.5369 110.74 48.5682C110.643 48.5966 110.534 48.6236 110.412 48.6491C110.29 48.6719 110.168 48.6932 110.045 48.7131C109.923 48.7301 109.812 48.7457 109.713 48.7599C109.5 48.7912 109.314 48.8409 109.155 48.9091C108.996 48.9773 108.872 49.0696 108.784 49.1861C108.696 49.2997 108.652 49.4418 108.652 49.6122C108.652 49.8594 108.741 50.0483 108.92 50.179C109.102 50.3068 109.332 50.3707 109.611 50.3707Z" fill="black"/>
<rect width="16" height="32" transform="translate(128 31)" fill="#D9D9D9"/>
<path d="M132.759 51.5V42.7727H134.574V46.054H134.629C134.709 45.8778 134.824 45.6989 134.974 45.517C135.128 45.3324 135.327 45.179 135.571 45.0568C135.818 44.9318 136.125 44.8693 136.491 44.8693C136.969 44.8693 137.409 44.9943 137.812 45.2443C138.216 45.4915 138.538 45.8651 138.78 46.3651C139.021 46.8622 139.142 47.4858 139.142 48.2358C139.142 48.9659 139.024 49.5824 138.788 50.0852C138.555 50.5852 138.237 50.9645 137.834 51.223C137.433 51.4787 136.984 51.6065 136.487 51.6065C136.135 51.6065 135.835 51.5483 135.588 51.4318C135.344 51.3153 135.143 51.169 134.987 50.9929C134.831 50.8139 134.712 50.6335 134.629 50.4517H134.548V51.5H132.759ZM134.536 48.2273C134.536 48.6165 134.589 48.956 134.697 49.2457C134.805 49.5355 134.962 49.7614 135.166 49.9233C135.371 50.0824 135.619 50.1619 135.912 50.1619C136.207 50.1619 136.457 50.081 136.662 49.919C136.866 49.7543 137.021 49.527 137.126 49.2372C137.234 48.9446 137.288 48.608 137.288 48.2273C137.288 47.8494 137.236 47.517 137.131 47.2301C137.026 46.9432 136.871 46.7187 136.666 46.5568C136.462 46.3949 136.21 46.3139 135.912 46.3139C135.616 46.3139 135.366 46.392 135.162 46.5483C134.96 46.7045 134.805 46.9261 134.697 47.2131C134.589 47.5 134.536 47.8381 134.536 48.2273Z" fill="black"/>
<path d="M116.994 83V74.2727H120.045C120.653 74.2727 121.155 74.3778 121.55 74.5881C121.945 74.7955 122.239 75.0753 122.432 75.4276C122.625 75.777 122.722 76.1648 122.722 76.5909C122.722 76.9659 122.655 77.2756 122.521 77.5199C122.391 77.7642 122.217 77.9574 122.001 78.0994C121.788 78.2415 121.557 78.3466 121.307 78.4148V78.5C121.574 78.517 121.842 78.6108 122.112 78.7812C122.382 78.9517 122.608 79.196 122.79 79.5142C122.972 79.8324 123.062 80.2216 123.062 80.6818C123.062 81.1193 122.963 81.5128 122.764 81.8622C122.565 82.2116 122.251 82.4886 121.822 82.6932C121.393 82.8977 120.835 83 120.148 83H116.994ZM118.051 82.0625H120.148C120.838 82.0625 121.328 81.929 121.618 81.6619C121.911 81.392 122.057 81.0653 122.057 80.6818C122.057 80.3864 121.982 80.1136 121.831 79.8636C121.68 79.6108 121.466 79.4091 121.188 79.2585C120.909 79.1051 120.58 79.0284 120.199 79.0284H118.051V82.0625ZM118.051 78.108H120.011C120.33 78.108 120.616 78.0455 120.872 77.9205C121.131 77.7955 121.335 77.6193 121.486 77.392C121.639 77.1648 121.716 76.8977 121.716 76.5909C121.716 76.2074 121.582 75.8821 121.315 75.6151C121.048 75.3452 120.625 75.2102 120.045 75.2102H118.051V78.108ZM125.157 83H124.049L127.254 74.2727H128.344L131.549 83H130.441L127.833 75.6534H127.765L125.157 83ZM125.566 79.5909H130.032V80.5284H125.566V79.5909ZM139.521 77H138.464C138.402 76.696 138.292 76.429 138.136 76.1989C137.983 75.9688 137.795 75.7756 137.574 75.6193C137.355 75.4602 137.112 75.3409 136.845 75.2614C136.578 75.1818 136.299 75.142 136.01 75.142C135.481 75.142 135.002 75.2756 134.574 75.5426C134.147 75.8097 133.808 76.2031 133.555 76.723C133.305 77.2429 133.18 77.8807 133.18 78.6364C133.18 79.392 133.305 80.0298 133.555 80.5497C133.808 81.0696 134.147 81.4631 134.574 81.7301C135.002 81.9972 135.481 82.1307 136.01 82.1307C136.299 82.1307 136.578 82.0909 136.845 82.0114C137.112 81.9318 137.355 81.8139 137.574 81.6577C137.795 81.4986 137.983 81.304 138.136 81.0739C138.292 80.8409 138.402 80.5739 138.464 80.2727H139.521C139.441 80.7187 139.297 81.1179 139.086 81.4702C138.876 81.8224 138.615 82.1222 138.302 82.3693C137.99 82.6136 137.639 82.7997 137.25 82.9276C136.863 83.0554 136.45 83.1193 136.01 83.1193C135.265 83.1193 134.603 82.9375 134.024 82.5739C133.444 82.2102 132.988 81.6932 132.656 81.0227C132.324 80.3523 132.157 79.5568 132.157 78.6364C132.157 77.7159 132.324 76.9205 132.656 76.25C132.988 75.5795 133.444 75.0625 134.024 74.6989C134.603 74.3352 135.265 74.1534 136.01 74.1534C136.45 74.1534 136.863 74.2173 137.25 74.3452C137.639 74.473 137.99 74.6605 138.302 74.9077C138.615 75.152 138.876 75.4503 139.086 75.8026C139.297 76.152 139.441 76.5511 139.521 77ZM141.229 83V74.2727H142.286V78.6023H142.388L146.308 74.2727H147.689L144.024 78.2102L147.689 83H146.411L143.376 78.9432L142.286 80.1705V83H141.229Z" fill="#5F5F5F"/>
<path d="M155.823 46.8232C155.726 46.9209 155.726 47.0791 155.823 47.1768L157.414 48.7678C157.512 48.8654 157.67 48.8654 157.768 48.7678C157.865 48.6701 157.865 48.5118 157.768 48.4142L156.354 47L157.768 45.5858C157.865 45.4882 157.865 45.3299 157.768 45.2322C157.67 45.1346 157.512 45.1346 157.414 45.2322L155.823 46.8232ZM172 46.75H171.5V47.25H172V46.75ZM170.5 46.75H169.5V47.25H170.5V46.75ZM168.5 46.75H167.5V47.25H168.5V46.75ZM166.5 46.75H165.5V47.25H166.5V46.75ZM164.5 46.75H163.5V47.25H164.5V46.75ZM162.5 46.75H161.5V47.25H162.5V46.75ZM160.5 46.75H159.5V47.25H160.5V46.75ZM158.5 46.75H157.5V47.25H158.5V46.75ZM156.5 46.75H156V47.25H156.5V46.75ZM155.646 46.6464C155.451 46.8417 155.451 47.1583 155.646 47.3536L158.828 50.5355C159.024 50.7308 159.34 50.7308 159.536 50.5355C159.731 50.3403 159.731 50.0237 159.536 49.8284L156.707 47L159.536 44.1716C159.731 43.9763 159.731 43.6597 159.536 43.4645C159.34 43.2692 159.024 43.2692 158.828 43.4645L155.646 46.6464ZM172 46.5H171.5V47.5H172V46.5ZM170.5 46.5H169.5V47.5H170.5V46.5ZM168.5 46.5H167.5V47.5H168.5V46.5ZM166.5 46.5H165.5V47.5H166.5V46.5ZM164.5 46.5H163.5V47.5H164.5V46.5ZM162.5 46.5H161.5V47.5H162.5V46.5ZM160.5 46.5H159.5V47.5H160.5V46.5ZM158.5 46.5H157.5V47.5H158.5V46.5ZM156.5 46.5H156V47.5H156.5V46.5Z" fill="black"/>
<path d="M180.861 51.5V42.7727H186.537V44.098H182.442V46.4673H186.243V47.7926H182.442V50.1747H186.571V51.5H180.861ZM195.322 42.7727V51.5H193.915L189.803 45.5554H189.731V51.5H188.15V42.7727H189.565L193.673 48.7216H193.749V42.7727H195.322ZM200.296 48.5682H201.728L202.576 49.6676L203.181 50.3835L204.634 52.25H203.1L202.111 50.9972L201.689 50.4006L200.296 48.5682ZM204.843 47.1364C204.843 48.0767 204.667 48.8821 204.314 49.5526C203.965 50.2202 203.488 50.7315 202.882 51.0866C202.28 51.4418 201.597 51.6193 200.833 51.6193C200.069 51.6193 199.384 51.4418 198.779 51.0866C198.176 50.7287 197.699 50.2159 197.347 49.5483C196.998 48.8778 196.823 48.0739 196.823 47.1364C196.823 46.196 196.998 45.392 197.347 44.7244C197.699 44.054 198.176 43.5412 198.779 43.1861C199.384 42.831 200.069 42.6534 200.833 42.6534C201.597 42.6534 202.28 42.831 202.882 43.1861C203.488 43.5412 203.965 44.054 204.314 44.7244C204.667 45.392 204.843 46.196 204.843 47.1364ZM203.253 47.1364C203.253 46.4744 203.15 45.9162 202.942 45.4616C202.738 45.0043 202.453 44.6591 202.09 44.4261C201.726 44.1903 201.307 44.0724 200.833 44.0724C200.358 44.0724 199.939 44.1903 199.576 44.4261C199.212 44.6591 198.926 45.0043 198.719 45.4616C198.515 45.9162 198.412 46.4744 198.412 47.1364C198.412 47.7983 198.515 48.358 198.719 48.8153C198.926 49.2699 199.212 49.6151 199.576 49.8509C199.939 50.0838 200.358 50.2003 200.833 50.2003C201.307 50.2003 201.726 50.0838 202.09 49.8509C202.453 49.6151 202.738 49.2699 202.942 48.8153C203.15 48.358 203.253 47.7983 203.253 47.1364ZM211.85 42.7727H213.431V48.4744C213.431 49.0994 213.284 49.6491 212.988 50.1236C212.696 50.598 212.284 50.9687 211.752 51.2358C211.221 51.5 210.6 51.6321 209.89 51.6321C209.177 51.6321 208.555 51.5 208.024 51.2358C207.493 50.9687 207.081 50.598 206.788 50.1236C206.495 49.6491 206.349 49.0994 206.349 48.4744V42.7727H207.93V48.3423C207.93 48.706 208.01 49.0298 208.169 49.3139C208.331 49.598 208.558 49.821 208.85 49.983C209.143 50.142 209.49 50.2216 209.89 50.2216C210.291 50.2216 210.637 50.142 210.93 49.983C211.225 49.821 211.453 49.598 211.612 49.3139C211.771 49.0298 211.85 48.706 211.85 48.3423V42.7727ZM215.15 51.5V42.7727H220.826V44.098H216.731V46.4673H220.532V47.7926H216.731V50.1747H220.86V51.5H215.15ZM227.94 42.7727H229.521V48.4744C229.521 49.0994 229.374 49.6491 229.078 50.1236C228.786 50.598 228.374 50.9687 227.842 51.2358C227.311 51.5 226.69 51.6321 225.98 51.6321C225.267 51.6321 224.645 51.5 224.114 51.2358C223.582 50.9687 223.17 50.598 222.878 50.1236C222.585 49.6491 222.439 49.0994 222.439 48.4744V42.7727H224.02V48.3423C224.02 48.706 224.099 49.0298 224.259 49.3139C224.42 49.598 224.648 49.821 224.94 49.983C225.233 50.142 225.58 50.2216 225.98 50.2216C226.381 50.2216 226.727 50.142 227.02 49.983C227.315 49.821 227.543 49.598 227.702 49.3139C227.861 49.0298 227.94 48.706 227.94 48.3423V42.7727ZM231.24 51.5V42.7727H236.916V44.098H232.821V46.4673H236.622V47.7926H232.821V50.1747H236.95V51.5H231.24Z" fill="black"/>
</g>
<defs>
<clipPath id="clip0_5_74">
<rect width="246" height="94" fill="white"/>
</clipPath>
</defs>
</svg>
