<svg width="404" height="102" viewBox="0 0 404 102" fill="none" xmlns="http://www.w3.org/2000/svg">
<g clip-path="url(#clip0_14_29)">
<rect width="404" height="102" fill="white"/>
<path d="M11.8182 55.5H8.8608V46.7727H11.8778C12.7443 46.7727 13.4886 46.9474 14.1108 47.2969C14.7358 47.6435 15.2159 48.142 15.5511 48.7926C15.8864 49.4432 16.054 50.2216 16.054 51.1278C16.054 52.0369 15.8849 52.8182 15.5469 53.4716C15.2116 54.125 14.7273 54.6264 14.0938 54.9759C13.4631 55.3253 12.7045 55.5 11.8182 55.5ZM10.4418 54.1321H11.7415C12.3494 54.1321 12.8565 54.0213 13.2628 53.7997C13.669 53.5753 13.9744 53.2415 14.179 52.7983C14.3835 52.3523 14.4858 51.7955 14.4858 51.1278C14.4858 50.4602 14.3835 49.9062 14.179 49.4659C13.9744 49.0227 13.6719 48.6918 13.2713 48.473C12.8736 48.2514 12.3793 48.1406 11.7884 48.1406H10.4418V54.1321ZM17.5561 55.5V46.7727H23.2322V48.098H19.1371V50.4673H22.9382V51.7926H19.1371V54.1747H23.2663V55.5H17.5561ZM28.0966 52.5682H29.5284L30.3764 53.6676L30.9815 54.3835L32.4347 56.25H30.9006L29.9119 54.9972L29.4901 54.4006L28.0966 52.5682ZM32.6435 51.1364C32.6435 52.0767 32.4673 52.8821 32.1151 53.5526C31.7656 54.2202 31.2884 54.7315 30.6832 55.0866C30.081 55.4418 29.3977 55.6193 28.6335 55.6193C27.8693 55.6193 27.1847 55.4418 26.5795 55.0866C25.9773 54.7287 25.5 54.2159 25.1477 53.5483C24.7983 52.8778 24.6236 52.0739 24.6236 51.1364C24.6236 50.196 24.7983 49.392 25.1477 48.7244C25.5 48.054 25.9773 47.5412 26.5795 47.1861C27.1847 46.831 27.8693 46.6534 28.6335 46.6534C29.3977 46.6534 30.081 46.831 30.6832 47.1861C31.2884 47.5412 31.7656 48.054 32.1151 48.7244C32.4673 49.392 32.6435 50.196 32.6435 51.1364ZM31.054 51.1364C31.054 50.4744 30.9503 49.9162 30.7429 49.4616C30.5384 49.0043 30.2543 48.6591 29.8906 48.4261C29.527 48.1903 29.108 48.0724 28.6335 48.0724C28.1591 48.0724 27.7401 48.1903 27.3764 48.4261C27.0128 48.6591 26.7273 49.0043 26.5199 49.4616C26.3153 49.9162 26.2131 50.4744 26.2131 51.1364C26.2131 51.7983 26.3153 52.358 26.5199 52.8153C26.7273 53.2699 27.0128 53.6151 27.3764 53.8509C27.7401 54.0838 28.1591 54.2003 28.6335 54.2003C29.108 54.2003 29.527 54.0838 29.8906 53.8509C30.2543 53.6151 30.5384 53.2699 30.7429 52.8153C30.9503 52.358 31.054 51.7983 31.054 51.1364ZM39.6513 46.7727H41.2322V52.4744C41.2322 53.0994 41.0845 53.6491 40.7891 54.1236C40.4964 54.598 40.0845 54.9687 39.5533 55.2358C39.022 55.5 38.4013 55.6321 37.6911 55.6321C36.978 55.6321 36.3558 55.5 35.8246 55.2358C35.2933 54.9687 34.8814 54.598 34.5888 54.1236C34.2962 53.6491 34.1499 53.0994 34.1499 52.4744V46.7727H35.7308V52.3423C35.7308 52.706 35.8104 53.0298 35.9695 53.3139C36.1314 53.598 36.3587 53.821 36.6513 53.983C36.9439 54.142 37.2905 54.2216 37.6911 54.2216C38.0916 54.2216 38.4382 54.142 38.7308 53.983C39.0263 53.821 39.2536 53.598 39.4126 53.3139C39.5717 53.0298 39.6513 52.706 39.6513 52.3423V46.7727ZM42.9506 55.5V46.7727H48.6268V48.098H44.5316V50.4673H48.3327V51.7926H44.5316V54.1747H48.6609V55.5H42.9506ZM55.7411 46.7727H57.3221V52.4744C57.3221 53.0994 57.1744 53.6491 56.8789 54.1236C56.5863 54.598 56.1744 54.9687 55.6431 55.2358C55.1119 55.5 54.4911 55.6321 53.7809 55.6321C53.0678 55.6321 52.4457 55.5 51.9144 55.2358C51.3832 54.9687 50.9712 54.598 50.6786 54.1236C50.386 53.6491 50.2397 53.0994 50.2397 52.4744V46.7727H51.8207V52.3423C51.8207 52.706 51.9002 53.0298 52.0593 53.3139C52.2212 53.598 52.4485 53.821 52.7411 53.983C53.0337 54.142 53.3803 54.2216 53.7809 54.2216C54.1815 54.2216 54.5281 54.142 54.8207 53.983C55.1161 53.821 55.3434 53.598 55.5025 53.3139C55.6616 53.0298 55.7411 52.706 55.7411 52.3423V46.7727ZM59.0405 55.5V46.7727H64.7166V48.098H60.6214V50.4673H64.4226V51.7926H60.6214V54.1747H64.7507V55.5H59.0405Z" fill="black"/>
<path d="M73.8232 50.8232C73.7256 50.9209 73.7256 51.0791 73.8232 51.1768L75.4142 52.7678C75.5118 52.8654 75.6701 52.8654 75.7678 52.7678C75.8654 52.6701 75.8654 52.5118 75.7678 52.4142L74.3536 51L75.7678 49.5858C75.8654 49.4882 75.8654 49.3299 75.7678 49.2322C75.6701 49.1346 75.5118 49.1346 75.4142 49.2322L73.8232 50.8232ZM90 50.75H89.5V51.25H90V50.75ZM88.5 50.75H87.5V51.25H88.5V50.75ZM86.5 50.75H85.5V51.25H86.5V50.75ZM84.5 50.75H83.5V51.25H84.5V50.75ZM82.5 50.75H81.5V51.25H82.5V50.75ZM80.5 50.75H79.5V51.25H80.5V50.75ZM78.5 50.75H77.5V51.25H78.5V50.75ZM76.5 50.75H75.5V51.25H76.5V50.75ZM74.5 50.75H74V51.25H74.5V50.75ZM73.6464 50.6464C73.4512 50.8417 73.4512 51.1583 73.6464 51.3536L76.8284 54.5355C77.0237 54.7308 77.3403 54.7308 77.5355 54.5355C77.7308 54.3403 77.7308 54.0237 77.5355 53.8284L74.7071 51L77.5355 48.1716C77.7308 47.9763 77.7308 47.6597 77.5355 47.4645C77.3403 47.2692 77.0237 47.2692 76.8284 47.4645L73.6464 50.6464ZM90 50.5H89.5V51.5H90V50.5ZM88.5 50.5H87.5V51.5H88.5V50.5ZM86.5 50.5H85.5V51.5H86.5V50.5ZM84.5 50.5H83.5V51.5H84.5V50.5ZM82.5 50.5H81.5V51.5H82.5V50.5ZM80.5 50.5H79.5V51.5H80.5V50.5ZM78.5 50.5H77.5V51.5H78.5V50.5ZM76.5 50.5H75.5V51.5H76.5V50.5ZM74.5 50.5H74V51.5H74.5V50.5Z" fill="black"/>
<path d="M99.0568 20V11.2727H104.29V12.2102H100.114V15.1591H103.898V16.0966H100.114V20H99.0568ZM106.1 20V11.2727H109.049C109.73 11.2727 110.29 11.3892 110.728 11.6222C111.165 11.8523 111.489 12.169 111.699 12.5724C111.909 12.9759 112.015 13.4347 112.015 13.9489C112.015 14.4631 111.909 14.919 111.699 15.3168C111.489 15.7145 111.167 16.027 110.732 16.2543C110.297 16.4787 109.742 16.5909 109.066 16.5909H106.679V15.6364H109.032C109.498 15.6364 109.873 15.5682 110.157 15.4318C110.444 15.2955 110.651 15.1023 110.779 14.8523C110.909 14.5994 110.975 14.2983 110.975 13.9489C110.975 13.5994 110.909 13.294 110.779 13.0327C110.648 12.7713 110.439 12.5696 110.152 12.4276C109.865 12.2827 109.486 12.2102 109.015 12.2102H107.157V20H106.1ZM110.208 16.0795L112.355 20H111.128L109.015 16.0795H110.208ZM121.139 15.6364C121.139 16.5568 120.973 17.3523 120.641 18.0227C120.308 18.6932 119.852 19.2102 119.273 19.5739C118.693 19.9375 118.031 20.1193 117.287 20.1193C116.543 20.1193 115.881 19.9375 115.301 19.5739C114.722 19.2102 114.266 18.6932 113.933 18.0227C113.601 17.3523 113.435 16.5568 113.435 15.6364C113.435 14.7159 113.601 13.9205 113.933 13.25C114.266 12.5795 114.722 12.0625 115.301 11.6989C115.881 11.3352 116.543 11.1534 117.287 11.1534C118.031 11.1534 118.693 11.3352 119.273 11.6989C119.852 12.0625 120.308 12.5795 120.641 13.25C120.973 13.9205 121.139 14.7159 121.139 15.6364ZM120.116 15.6364C120.116 14.8807 119.99 14.2429 119.737 13.723C119.487 13.2031 119.148 12.8097 118.719 12.5426C118.293 12.2756 117.815 12.142 117.287 12.142C116.759 12.142 116.28 12.2756 115.851 12.5426C115.425 12.8097 115.085 13.2031 114.832 13.723C114.582 14.2429 114.457 14.8807 114.457 15.6364C114.457 16.392 114.582 17.0298 114.832 17.5497C115.085 18.0696 115.425 18.4631 115.851 18.7301C116.28 18.9972 116.759 19.1307 117.287 19.1307C117.815 19.1307 118.293 18.9972 118.719 18.7301C119.148 18.4631 119.487 18.0696 119.737 17.5497C119.99 17.0298 120.116 16.392 120.116 15.6364ZM129.837 11.2727V20H128.814L124.058 13.1477H123.973V20H122.916V11.2727H123.939L128.712 18.142H128.797V11.2727H129.837ZM131.474 12.2102V11.2727H138.02V12.2102H135.275V20H134.218V12.2102H131.474Z" fill="#5F5F5F"/>
<rect width="32" height="48" transform="translate(102 27)" fill="#D9D9D9"/>
<path d="M114.286 43.1108C114.004 43.1108 113.763 43.0114 113.561 42.8125C113.362 42.6108 113.263 42.3693 113.263 42.0881C113.263 41.8097 113.362 41.571 113.561 41.3722C113.763 41.1733 114.004 41.0739 114.286 41.0739C114.558 41.0739 114.797 41.1733 115.001 41.3722C115.206 41.571 115.308 41.8097 115.308 42.0881C115.308 42.2756 115.26 42.4474 115.163 42.6037C115.07 42.7571 114.946 42.8807 114.793 42.9744C114.639 43.0653 114.47 43.1108 114.286 43.1108ZM117.86 43.1108C117.578 43.1108 117.337 43.0114 117.135 42.8125C116.936 42.6108 116.837 42.3693 116.837 42.0881C116.837 41.8097 116.936 41.571 117.135 41.3722C117.337 41.1733 117.578 41.0739 117.86 41.0739C118.132 41.0739 118.371 41.1733 118.576 41.3722C118.78 41.571 118.882 41.8097 118.882 42.0881C118.882 42.2756 118.834 42.4474 118.738 42.6037C118.644 42.7571 118.52 42.8807 118.367 42.9744C118.213 43.0653 118.044 43.1108 117.86 43.1108ZM121.434 43.1108C121.153 43.1108 120.911 43.0114 120.71 42.8125C120.511 42.6108 120.411 42.3693 120.411 42.0881C120.411 41.8097 120.511 41.571 120.71 41.3722C120.911 41.1733 121.153 41.0739 121.434 41.0739C121.707 41.0739 121.945 41.1733 122.15 41.3722C122.354 41.571 122.457 41.8097 122.457 42.0881C122.457 42.2756 122.408 42.4474 122.312 42.6037C122.218 42.7571 122.094 42.8807 121.941 42.9744C121.788 43.0653 121.619 43.1108 121.434 43.1108Z" fill="black"/>
<path d="M114.075 66.4659V65.0128L117.719 59.2727H118.972V61.2841H118.23L115.933 64.919V64.9872H121.111V66.4659H114.075ZM118.264 68V66.0227L118.298 65.3793V59.2727H120.028V68H118.264Z" fill="black"/>
<rect width="32" height="48" transform="translate(144 27)" fill="#D9D9D9"/>
<path d="M156.286 43.1108C156.004 43.1108 155.763 43.0114 155.561 42.8125C155.362 42.6108 155.263 42.3693 155.263 42.0881C155.263 41.8097 155.362 41.571 155.561 41.3722C155.763 41.1733 156.004 41.0739 156.286 41.0739C156.558 41.0739 156.797 41.1733 157.001 41.3722C157.206 41.571 157.308 41.8097 157.308 42.0881C157.308 42.2756 157.26 42.4474 157.163 42.6037C157.07 42.7571 156.946 42.8807 156.793 42.9744C156.639 43.0653 156.47 43.1108 156.286 43.1108ZM159.86 43.1108C159.578 43.1108 159.337 43.0114 159.135 42.8125C158.936 42.6108 158.837 42.3693 158.837 42.0881C158.837 41.8097 158.936 41.571 159.135 41.3722C159.337 41.1733 159.578 41.0739 159.86 41.0739C160.132 41.0739 160.371 41.1733 160.576 41.3722C160.78 41.571 160.882 41.8097 160.882 42.0881C160.882 42.2756 160.834 42.4474 160.738 42.6037C160.644 42.7571 160.52 42.8807 160.367 42.9744C160.213 43.0653 160.044 43.1108 159.86 43.1108ZM163.434 43.1108C163.153 43.1108 162.911 43.0114 162.71 42.8125C162.511 42.6108 162.411 42.3693 162.411 42.0881C162.411 41.8097 162.511 41.571 162.71 41.3722C162.911 41.1733 163.153 41.0739 163.434 41.0739C163.707 41.0739 163.945 41.1733 164.15 41.3722C164.354 41.571 164.457 41.8097 164.457 42.0881C164.457 42.2756 164.408 42.4474 164.312 42.6037C164.218 42.7571 164.094 42.8807 163.941 42.9744C163.788 43.0653 163.619 43.1108 163.434 43.1108Z" fill="black"/>
<path d="M159.933 68.1193C159.297 68.1193 158.73 68.0099 158.233 67.7912C157.739 67.5696 157.348 67.2656 157.061 66.8793C156.777 66.4901 156.631 66.0412 156.622 65.5327H158.48C158.491 65.7457 158.561 65.9332 158.689 66.0952C158.82 66.2543 158.993 66.3778 159.209 66.4659C159.425 66.554 159.668 66.598 159.938 66.598C160.219 66.598 160.467 66.5483 160.683 66.4489C160.899 66.3494 161.068 66.2116 161.19 66.0355C161.313 65.8594 161.374 65.6562 161.374 65.4261C161.374 65.1932 161.308 64.9872 161.178 64.8082C161.05 64.6264 160.865 64.4844 160.624 64.3821C160.385 64.2798 160.101 64.2287 159.771 64.2287H158.957V62.8736H159.771C160.05 62.8736 160.295 62.8253 160.509 62.7287C160.724 62.6321 160.892 62.4986 161.011 62.3281C161.131 62.1548 161.19 61.9531 161.19 61.723C161.19 61.5043 161.138 61.3125 161.033 61.1477C160.93 60.9801 160.786 60.8494 160.598 60.7557C160.413 60.6619 160.197 60.6151 159.95 60.6151C159.7 60.6151 159.472 60.6605 159.264 60.7514C159.057 60.8395 158.891 60.9659 158.766 61.1307C158.641 61.2955 158.574 61.4886 158.565 61.7102H156.797C156.805 61.2074 156.949 60.7642 157.227 60.3807C157.506 59.9972 157.881 59.6974 158.352 59.4815C158.827 59.2628 159.362 59.1534 159.959 59.1534C160.561 59.1534 161.088 59.2628 161.54 59.4815C161.991 59.7003 162.342 59.9957 162.592 60.3679C162.845 60.7372 162.97 61.152 162.967 61.6122C162.97 62.1009 162.818 62.5085 162.511 62.8352C162.207 63.1619 161.811 63.3693 161.322 63.4574V63.5256C161.964 63.608 162.453 63.831 162.788 64.1946C163.126 64.5554 163.294 65.0071 163.291 65.5497C163.294 66.0469 163.151 66.4886 162.861 66.875C162.574 67.2614 162.178 67.5653 161.672 67.7869C161.166 68.0085 160.587 68.1193 159.933 68.1193Z" fill="black"/>
<rect width="32" height="48" transform="translate(186 27)" fill="#D9D9D9"/>
<path d="M198.286 43.1108C198.004 43.1108 197.763 43.0114 197.561 42.8125C197.362 42.6108 197.263 42.3693 197.263 42.0881C197.263 41.8097 197.362 41.571 197.561 41.3722C197.763 41.1733 198.004 41.0739 198.286 41.0739C198.558 41.0739 198.797 41.1733 199.001 41.3722C199.206 41.571 199.308 41.8097 199.308 42.0881C199.308 42.2756 199.26 42.4474 199.163 42.6037C199.07 42.7571 198.946 42.8807 198.793 42.9744C198.639 43.0653 198.47 43.1108 198.286 43.1108ZM201.86 43.1108C201.578 43.1108 201.337 43.0114 201.135 42.8125C200.936 42.6108 200.837 42.3693 200.837 42.0881C200.837 41.8097 200.936 41.571 201.135 41.3722C201.337 41.1733 201.578 41.0739 201.86 41.0739C202.132 41.0739 202.371 41.1733 202.576 41.3722C202.78 41.571 202.882 41.8097 202.882 42.0881C202.882 42.2756 202.834 42.4474 202.738 42.6037C202.644 42.7571 202.52 42.8807 202.367 42.9744C202.213 43.0653 202.044 43.1108 201.86 43.1108ZM205.434 43.1108C205.153 43.1108 204.911 43.0114 204.71 42.8125C204.511 42.6108 204.411 42.3693 204.411 42.0881C204.411 41.8097 204.511 41.571 204.71 41.3722C204.911 41.1733 205.153 41.0739 205.434 41.0739C205.707 41.0739 205.945 41.1733 206.15 41.3722C206.354 41.571 206.457 41.8097 206.457 42.0881C206.457 42.2756 206.408 42.4474 206.312 42.6037C206.218 42.7571 206.094 42.8807 205.941 42.9744C205.788 43.0653 205.619 43.1108 205.434 43.1108Z" fill="black"/>
<path d="M201.933 68.1193C201.297 68.1193 200.73 68.0099 200.233 67.7912C199.739 67.5696 199.348 67.2656 199.061 66.8793C198.777 66.4901 198.631 66.0412 198.622 65.5327H200.48C200.491 65.7457 200.561 65.9332 200.689 66.0952C200.82 66.2543 200.993 66.3778 201.209 66.4659C201.425 66.554 201.668 66.598 201.938 66.598C202.219 66.598 202.467 66.5483 202.683 66.4489C202.899 66.3494 203.068 66.2116 203.19 66.0355C203.313 65.8594 203.374 65.6562 203.374 65.4261C203.374 65.1932 203.308 64.9872 203.178 64.8082C203.05 64.6264 202.865 64.4844 202.624 64.3821C202.385 64.2798 202.101 64.2287 201.771 64.2287H200.957V62.8736H201.771C202.05 62.8736 202.295 62.8253 202.509 62.7287C202.724 62.6321 202.892 62.4986 203.011 62.3281C203.131 62.1548 203.19 61.9531 203.19 61.723C203.19 61.5043 203.138 61.3125 203.033 61.1477C202.93 60.9801 202.786 60.8494 202.598 60.7557C202.413 60.6619 202.197 60.6151 201.95 60.6151C201.7 60.6151 201.472 60.6605 201.264 60.7514C201.057 60.8395 200.891 60.9659 200.766 61.1307C200.641 61.2955 200.574 61.4886 200.565 61.7102H198.797C198.805 61.2074 198.949 60.7642 199.227 60.3807C199.506 59.9972 199.881 59.6974 200.352 59.4815C200.827 59.2628 201.362 59.1534 201.959 59.1534C202.561 59.1534 203.088 59.2628 203.54 59.4815C203.991 59.7003 204.342 59.9957 204.592 60.3679C204.845 60.7372 204.97 61.152 204.967 61.6122C204.97 62.1009 204.818 62.5085 204.511 62.8352C204.207 63.1619 203.811 63.3693 203.322 63.4574V63.5256C203.964 63.608 204.453 63.831 204.788 64.1946C205.126 64.5554 205.294 65.0071 205.291 65.5497C205.294 66.0469 205.151 66.4886 204.861 66.875C204.574 67.2614 204.178 67.5653 203.672 67.7869C203.166 68.0085 202.587 68.1193 201.933 68.1193Z" fill="black"/>
<rect width="32" height="48" transform="translate(228 27)" fill="#D9D9D9"/>
<path d="M240.286 43.1108C240.004 43.1108 239.763 43.0114 239.561 42.8125C239.362 42.6108 239.263 42.3693 239.263 42.0881C239.263 41.8097 239.362 41.571 239.561 41.3722C239.763 41.1733 240.004 41.0739 240.286 41.0739C240.558 41.0739 240.797 41.1733 241.001 41.3722C241.206 41.571 241.308 41.8097 241.308 42.0881C241.308 42.2756 241.26 42.4474 241.163 42.6037C241.07 42.7571 240.946 42.8807 240.793 42.9744C240.639 43.0653 240.47 43.1108 240.286 43.1108ZM243.86 43.1108C243.578 43.1108 243.337 43.0114 243.135 42.8125C242.936 42.6108 242.837 42.3693 242.837 42.0881C242.837 41.8097 242.936 41.571 243.135 41.3722C243.337 41.1733 243.578 41.0739 243.86 41.0739C244.132 41.0739 244.371 41.1733 244.576 41.3722C244.78 41.571 244.882 41.8097 244.882 42.0881C244.882 42.2756 244.834 42.4474 244.738 42.6037C244.644 42.7571 244.52 42.8807 244.367 42.9744C244.213 43.0653 244.044 43.1108 243.86 43.1108ZM247.434 43.1108C247.153 43.1108 246.911 43.0114 246.71 42.8125C246.511 42.6108 246.411 42.3693 246.411 42.0881C246.411 41.8097 246.511 41.571 246.71 41.3722C246.911 41.1733 247.153 41.0739 247.434 41.0739C247.707 41.0739 247.945 41.1733 248.15 41.3722C248.354 41.571 248.457 41.8097 248.457 42.0881C248.457 42.2756 248.408 42.4474 248.312 42.6037C248.218 42.7571 248.094 42.8807 247.941 42.9744C247.788 43.0653 247.619 43.1108 247.434 43.1108Z" fill="black"/>
<path d="M245.504 59.2727V68H243.659V61.0241H243.608L241.609 62.277V60.6406L243.77 59.2727H245.504Z" fill="black"/>
<rect width="32" height="48" transform="translate(270 27)" fill="#D9D9D9"/>
<path d="M282.286 43.1108C282.004 43.1108 281.763 43.0114 281.561 42.8125C281.362 42.6108 281.263 42.3693 281.263 42.0881C281.263 41.8097 281.362 41.571 281.561 41.3722C281.763 41.1733 282.004 41.0739 282.286 41.0739C282.558 41.0739 282.797 41.1733 283.001 41.3722C283.206 41.571 283.308 41.8097 283.308 42.0881C283.308 42.2756 283.26 42.4474 283.163 42.6037C283.07 42.7571 282.946 42.8807 282.793 42.9744C282.639 43.0653 282.47 43.1108 282.286 43.1108ZM285.86 43.1108C285.578 43.1108 285.337 43.0114 285.135 42.8125C284.936 42.6108 284.837 42.3693 284.837 42.0881C284.837 41.8097 284.936 41.571 285.135 41.3722C285.337 41.1733 285.578 41.0739 285.86 41.0739C286.132 41.0739 286.371 41.1733 286.576 41.3722C286.78 41.571 286.882 41.8097 286.882 42.0881C286.882 42.2756 286.834 42.4474 286.738 42.6037C286.644 42.7571 286.52 42.8807 286.367 42.9744C286.213 43.0653 286.044 43.1108 285.86 43.1108ZM289.434 43.1108C289.153 43.1108 288.911 43.0114 288.71 42.8125C288.511 42.6108 288.411 42.3693 288.411 42.0881C288.411 41.8097 288.511 41.571 288.71 41.3722C288.911 41.1733 289.153 41.0739 289.434 41.0739C289.707 41.0739 289.945 41.1733 290.15 41.3722C290.354 41.571 290.457 41.8097 290.457 42.0881C290.457 42.2756 290.408 42.4474 290.312 42.6037C290.218 42.7571 290.094 42.8807 289.941 42.9744C289.788 43.0653 289.619 43.1108 289.434 43.1108Z" fill="black"/>
<path d="M284.303 62.9162V64.3565H280.322V62.9162H284.303ZM285.586 68V66.6705L288.693 63.794C288.957 63.5384 289.179 63.3082 289.358 63.1037C289.539 62.8991 289.677 62.6989 289.771 62.5028C289.865 62.304 289.912 62.0895 289.912 61.8594C289.912 61.6037 289.853 61.3835 289.737 61.1989C289.62 61.0114 289.461 60.8679 289.26 60.7685C289.058 60.6662 288.829 60.6151 288.574 60.6151C288.306 60.6151 288.074 60.669 287.875 60.777C287.676 60.8849 287.522 61.0398 287.414 61.2415C287.306 61.4432 287.252 61.6832 287.252 61.9616H285.501C285.501 61.3906 285.63 60.8949 285.889 60.4744C286.147 60.054 286.51 59.7287 286.975 59.4986C287.441 59.2685 287.978 59.1534 288.586 59.1534C289.211 59.1534 289.755 59.2642 290.218 59.4858C290.684 59.7045 291.047 60.0085 291.305 60.3977C291.564 60.7869 291.693 61.233 291.693 61.7358C291.693 62.0653 291.627 62.3906 291.497 62.7116C291.369 63.0327 291.14 63.3892 290.811 63.7812C290.481 64.1705 290.017 64.6378 289.417 65.1832L288.143 66.4318V66.4915H291.808V68H285.586Z" fill="black"/>
<path d="M274.994 91V82.2727H278.045C278.653 82.2727 279.155 82.3778 279.55 82.5881C279.945 82.7955 280.239 83.0753 280.432 83.4276C280.625 83.777 280.722 84.1648 280.722 84.5909C280.722 84.9659 280.655 85.2756 280.521 85.5199C280.391 85.7642 280.217 85.9574 280.001 86.0994C279.788 86.2415 279.557 86.3466 279.307 86.4148V86.5C279.574 86.517 279.842 86.6108 280.112 86.7812C280.382 86.9517 280.608 87.196 280.79 87.5142C280.972 87.8324 281.062 88.2216 281.062 88.6818C281.062 89.1193 280.963 89.5128 280.764 89.8622C280.565 90.2116 280.251 90.4886 279.822 90.6932C279.393 90.8977 278.835 91 278.148 91H274.994ZM276.051 90.0625H278.148C278.838 90.0625 279.328 89.929 279.618 89.6619C279.911 89.392 280.057 89.0653 280.057 88.6818C280.057 88.3864 279.982 88.1136 279.831 87.8636C279.68 87.6108 279.466 87.4091 279.188 87.2585C278.909 87.1051 278.58 87.0284 278.199 87.0284H276.051V90.0625ZM276.051 86.108H278.011C278.33 86.108 278.616 86.0455 278.872 85.9205C279.131 85.7955 279.335 85.6193 279.486 85.392C279.639 85.1648 279.716 84.8977 279.716 84.5909C279.716 84.2074 279.582 83.8821 279.315 83.6151C279.048 83.3452 278.625 83.2102 278.045 83.2102H276.051V86.108ZM283.157 91H282.049L285.254 82.2727H286.344L289.549 91H288.441L285.833 83.6534H285.765L283.157 91ZM283.566 87.5909H288.032V88.5284H283.566V87.5909ZM297.521 85H296.464C296.402 84.696 296.292 84.429 296.136 84.1989C295.983 83.9688 295.795 83.7756 295.574 83.6193C295.355 83.4602 295.112 83.3409 294.845 83.2614C294.578 83.1818 294.299 83.142 294.01 83.142C293.481 83.142 293.002 83.2756 292.574 83.5426C292.147 83.8097 291.808 84.2031 291.555 84.723C291.305 85.2429 291.18 85.8807 291.18 86.6364C291.18 87.392 291.305 88.0298 291.555 88.5497C291.808 89.0696 292.147 89.4631 292.574 89.7301C293.002 89.9972 293.481 90.1307 294.01 90.1307C294.299 90.1307 294.578 90.0909 294.845 90.0114C295.112 89.9318 295.355 89.8139 295.574 89.6577C295.795 89.4986 295.983 89.304 296.136 89.0739C296.292 88.8409 296.402 88.5739 296.464 88.2727H297.521C297.441 88.7187 297.297 89.1179 297.086 89.4702C296.876 89.8224 296.615 90.1222 296.302 90.3693C295.99 90.6136 295.639 90.7997 295.25 90.9276C294.863 91.0554 294.45 91.1193 294.01 91.1193C293.265 91.1193 292.603 90.9375 292.024 90.5739C291.444 90.2102 290.988 89.6932 290.656 89.0227C290.324 88.3523 290.157 87.5568 290.157 86.6364C290.157 85.7159 290.324 84.9205 290.656 84.25C290.988 83.5795 291.444 83.0625 292.024 82.6989C292.603 82.3352 293.265 82.1534 294.01 82.1534C294.45 82.1534 294.863 82.2173 295.25 82.3452C295.639 82.473 295.99 82.6605 296.302 82.9077C296.615 83.152 296.876 83.4503 297.086 83.8026C297.297 84.152 297.441 84.5511 297.521 85ZM299.229 91V82.2727H300.286V86.6023H300.388L304.308 82.2727H305.689L302.024 86.2102L305.689 91H304.411L301.376 86.9432L300.286 88.1705V91H299.229Z" fill="#5F5F5F"/>
<path d="M313.823 50.8232C313.726 50.9209 313.726 51.0791 313.823 51.1768L315.414 52.7678C315.512 52.8654 315.67 52.8654 315.768 52.7678C315.865 52.6701 315.865 52.5118 315.768 52.4142L314.354 51L315.768 49.5858C315.865 49.4882 315.865 49.3299 315.768 49.2322C315.67 49.1346 315.512 49.1346 315.414 49.2322L313.823 50.8232ZM330 50.75H329.5V51.25H330V50.75ZM328.5 50.75H327.5V51.25H328.5V50.75ZM326.5 50.75H325.5V51.25H326.5V50.75ZM324.5 50.75H323.5V51.25H324.5V50.75ZM322.5 50.75H321.5V51.25H322.5V50.75ZM320.5 50.75H319.5V51.25H320.5V50.75ZM318.5 50.75H317.5V51.25H318.5V50.75ZM316.5 50.75H315.5V51.25H316.5V50.75ZM314.5 50.75H314V51.25H314.5V50.75ZM313.646 50.6464C313.451 50.8417 313.451 51.1583 313.646 51.3536L316.828 54.5355C317.024 54.7308 317.34 54.7308 317.536 54.5355C317.731 54.3403 317.731 54.0237 317.536 53.8284L314.707 51L317.536 48.1716C317.731 47.9763 317.731 47.6597 317.536 47.4645C317.34 47.2692 317.024 47.2692 316.828 47.4645L313.646 50.6464ZM330 50.5H329.5V51.5H330V50.5ZM328.5 50.5H327.5V51.5H328.5V50.5ZM326.5 50.5H325.5V51.5H326.5V50.5ZM324.5 50.5H323.5V51.5H324.5V50.5ZM322.5 50.5H321.5V51.5H322.5V50.5ZM320.5 50.5H319.5V51.5H320.5V50.5ZM318.5 50.5H317.5V51.5H318.5V50.5ZM316.5 50.5H315.5V51.5H316.5V50.5ZM314.5 50.5H314V51.5H314.5V50.5Z" fill="black"/>
<path d="M338.861 55.5V46.7727H344.537V48.098H340.442V50.4673H344.243V51.7926H340.442V54.1747H344.571V55.5H338.861ZM353.322 46.7727V55.5H351.915L347.803 49.5554H347.731V55.5H346.15V46.7727H347.565L351.673 52.7216H351.749V46.7727H353.322ZM358.296 52.5682H359.728L360.576 53.6676L361.181 54.3835L362.634 56.25H361.1L360.111 54.9972L359.689 54.4006L358.296 52.5682ZM362.843 51.1364C362.843 52.0767 362.667 52.8821 362.314 53.5526C361.965 54.2202 361.488 54.7315 360.882 55.0866C360.28 55.4418 359.597 55.6193 358.833 55.6193C358.069 55.6193 357.384 55.4418 356.779 55.0866C356.176 54.7287 355.699 54.2159 355.347 53.5483C354.998 52.8778 354.823 52.0739 354.823 51.1364C354.823 50.196 354.998 49.392 355.347 48.7244C355.699 48.054 356.176 47.5412 356.779 47.1861C357.384 46.831 358.069 46.6534 358.833 46.6534C359.597 46.6534 360.28 46.831 360.882 47.1861C361.488 47.5412 361.965 48.054 362.314 48.7244C362.667 49.392 362.843 50.196 362.843 51.1364ZM361.253 51.1364C361.253 50.4744 361.15 49.9162 360.942 49.4616C360.738 49.0043 360.453 48.6591 360.09 48.4261C359.726 48.1903 359.307 48.0724 358.833 48.0724C358.358 48.0724 357.939 48.1903 357.576 48.4261C357.212 48.6591 356.926 49.0043 356.719 49.4616C356.515 49.9162 356.412 50.4744 356.412 51.1364C356.412 51.7983 356.515 52.358 356.719 52.8153C356.926 53.2699 357.212 53.6151 357.576 53.8509C357.939 54.0838 358.358 54.2003 358.833 54.2003C359.307 54.2003 359.726 54.0838 360.09 53.8509C360.453 53.6151 360.738 53.2699 360.942 52.8153C361.15 52.358 361.253 51.7983 361.253 51.1364ZM369.85 46.7727H371.431V52.4744C371.431 53.0994 371.284 53.6491 370.988 54.1236C370.696 54.598 370.284 54.9687 369.752 55.2358C369.221 55.5 368.6 55.6321 367.89 55.6321C367.177 55.6321 366.555 55.5 366.024 55.2358C365.493 54.9687 365.081 54.598 364.788 54.1236C364.495 53.6491 364.349 53.0994 364.349 52.4744V46.7727H365.93V52.3423C365.93 52.706 366.01 53.0298 366.169 53.3139C366.331 53.598 366.558 53.821 366.85 53.983C367.143 54.142 367.49 54.2216 367.89 54.2216C368.291 54.2216 368.637 54.142 368.93 53.983C369.225 53.821 369.453 53.598 369.612 53.3139C369.771 53.0298 369.85 52.706 369.85 52.3423V46.7727ZM373.15 55.5V46.7727H378.826V48.098H374.731V50.4673H378.532V51.7926H374.731V54.1747H378.86V55.5H373.15ZM385.94 46.7727H387.521V52.4744C387.521 53.0994 387.374 53.6491 387.078 54.1236C386.786 54.598 386.374 54.9687 385.842 55.2358C385.311 55.5 384.69 55.6321 383.98 55.6321C383.267 55.6321 382.645 55.5 382.114 55.2358C381.582 54.9687 381.17 54.598 380.878 54.1236C380.585 53.6491 380.439 53.0994 380.439 52.4744V46.7727H382.02V52.3423C382.02 52.706 382.099 53.0298 382.259 53.3139C382.42 53.598 382.648 53.821 382.94 53.983C383.233 54.142 383.58 54.2216 383.98 54.2216C384.381 54.2216 384.727 54.142 385.02 53.983C385.315 53.821 385.543 53.598 385.702 53.3139C385.861 53.0298 385.94 52.706 385.94 52.3423V46.7727ZM389.24 55.5V46.7727H394.916V48.098H390.821V50.4673H394.622V51.7926H390.821V54.1747H394.95V55.5H389.24Z" fill="black"/>
</g>
<defs>
<clipPath id="clip0_14_29">
<rect width="404" height="102" fill="white"/>
</clipPath>
</defs>
</svg>
