<svg width="241" height="81" viewBox="0 0 241 81" fill="none" xmlns="http://www.w3.org/2000/svg">
<g clip-path="url(#clip0_1_21)">
<rect width="241" height="81" fill="white"/>
<path d="M11.8182 45H8.8608V36.2727H11.8778C12.7443 36.2727 13.4886 36.4474 14.1108 36.7969C14.7358 37.1435 15.2159 37.642 15.5511 38.2926C15.8864 38.9432 16.054 39.7216 16.054 40.6278C16.054 41.5369 15.8849 42.3182 15.5469 42.9716C15.2116 43.625 14.7273 44.1264 14.0938 44.4759C13.4631 44.8253 12.7045 45 11.8182 45ZM10.4418 43.6321H11.7415C12.3494 43.6321 12.8565 43.5213 13.2628 43.2997C13.669 43.0753 13.9744 42.7415 14.179 42.2983C14.3835 41.8523 14.4858 41.2955 14.4858 40.6278C14.4858 39.9602 14.3835 39.4062 14.179 38.9659C13.9744 38.5227 13.6719 38.1918 13.2713 37.973C12.8736 37.7514 12.3793 37.6406 11.7884 37.6406H10.4418V43.6321ZM17.5561 45V36.2727H23.2322V37.598H19.1371V39.9673H22.9382V41.2926H19.1371V43.6747H23.2663V45H17.5561ZM28.0966 42.0682H29.5284L30.3764 43.1676L30.9815 43.8835L32.4347 45.75H30.9006L29.9119 44.4972L29.4901 43.9006L28.0966 42.0682ZM32.6435 40.6364C32.6435 41.5767 32.4673 42.3821 32.1151 43.0526C31.7656 43.7202 31.2884 44.2315 30.6832 44.5866C30.081 44.9418 29.3977 45.1193 28.6335 45.1193C27.8693 45.1193 27.1847 44.9418 26.5795 44.5866C25.9773 44.2287 25.5 43.7159 25.1477 43.0483C24.7983 42.3778 24.6236 41.5739 24.6236 40.6364C24.6236 39.696 24.7983 38.892 25.1477 38.2244C25.5 37.554 25.9773 37.0412 26.5795 36.6861C27.1847 36.331 27.8693 36.1534 28.6335 36.1534C29.3977 36.1534 30.081 36.331 30.6832 36.6861C31.2884 37.0412 31.7656 37.554 32.1151 38.2244C32.4673 38.892 32.6435 39.696 32.6435 40.6364ZM31.054 40.6364C31.054 39.9744 30.9503 39.4162 30.7429 38.9616C30.5384 38.5043 30.2543 38.1591 29.8906 37.9261C29.527 37.6903 29.108 37.5724 28.6335 37.5724C28.1591 37.5724 27.7401 37.6903 27.3764 37.9261C27.0128 38.1591 26.7273 38.5043 26.5199 38.9616C26.3153 39.4162 26.2131 39.9744 26.2131 40.6364C26.2131 41.2983 26.3153 41.858 26.5199 42.3153C26.7273 42.7699 27.0128 43.1151 27.3764 43.3509C27.7401 43.5838 28.1591 43.7003 28.6335 43.7003C29.108 43.7003 29.527 43.5838 29.8906 43.3509C30.2543 43.1151 30.5384 42.7699 30.7429 42.3153C30.9503 41.858 31.054 41.2983 31.054 40.6364ZM39.6513 36.2727H41.2322V41.9744C41.2322 42.5994 41.0845 43.1491 40.7891 43.6236C40.4964 44.098 40.0845 44.4687 39.5533 44.7358C39.022 45 38.4013 45.1321 37.6911 45.1321C36.978 45.1321 36.3558 45 35.8246 44.7358C35.2933 44.4687 34.8814 44.098 34.5888 43.6236C34.2962 43.1491 34.1499 42.5994 34.1499 41.9744V36.2727H35.7308V41.8423C35.7308 42.206 35.8104 42.5298 35.9695 42.8139C36.1314 43.098 36.3587 43.321 36.6513 43.483C36.9439 43.642 37.2905 43.7216 37.6911 43.7216C38.0916 43.7216 38.4382 43.642 38.7308 43.483C39.0263 43.321 39.2536 43.098 39.4126 42.8139C39.5717 42.5298 39.6513 42.206 39.6513 41.8423V36.2727ZM42.9506 45V36.2727H48.6268V37.598H44.5316V39.9673H48.3327V41.2926H44.5316V43.6747H48.6609V45H42.9506ZM55.7411 36.2727H57.3221V41.9744C57.3221 42.5994 57.1744 43.1491 56.8789 43.6236C56.5863 44.098 56.1744 44.4687 55.6431 44.7358C55.1119 45 54.4911 45.1321 53.7809 45.1321C53.0678 45.1321 52.4457 45 51.9144 44.7358C51.3832 44.4687 50.9712 44.098 50.6786 43.6236C50.386 43.1491 50.2397 42.5994 50.2397 41.9744V36.2727H51.8207V41.8423C51.8207 42.206 51.9002 42.5298 52.0593 42.8139C52.2212 43.098 52.4485 43.321 52.7411 43.483C53.0337 43.642 53.3803 43.7216 53.7809 43.7216C54.1815 43.7216 54.5281 43.642 54.8207 43.483C55.1161 43.321 55.3434 43.098 55.5025 42.8139C55.6616 42.5298 55.7411 42.206 55.7411 41.8423V36.2727ZM59.0405 45V36.2727H64.7166V37.598H60.6214V39.9673H64.4226V41.2926H60.6214V43.6747H64.7507V45H59.0405Z" fill="black"/>
<path d="M73.8232 40.3232C73.7256 40.4209 73.7256 40.5791 73.8232 40.6768L75.4142 42.2678C75.5118 42.3654 75.6701 42.3654 75.7678 42.2678C75.8654 42.1701 75.8654 42.0118 75.7678 41.9142L74.3536 40.5L75.7678 39.0858C75.8654 38.9882 75.8654 38.8299 75.7678 38.7322C75.6701 38.6346 75.5118 38.6346 75.4142 38.7322L73.8232 40.3232ZM90 40.25H89.5V40.75H90V40.25ZM88.5 40.25H87.5V40.75H88.5V40.25ZM86.5 40.25H85.5V40.75H86.5V40.25ZM84.5 40.25H83.5V40.75H84.5V40.25ZM82.5 40.25H81.5V40.75H82.5V40.25ZM80.5 40.25H79.5V40.75H80.5V40.25ZM78.5 40.25H77.5V40.75H78.5V40.25ZM76.5 40.25H75.5V40.75H76.5V40.25ZM74.5 40.25H74V40.75H74.5V40.25ZM73.6464 40.1464C73.4512 40.3417 73.4512 40.6583 73.6464 40.8536L76.8284 44.0355C77.0237 44.2308 77.3403 44.2308 77.5355 44.0355C77.7308 43.8403 77.7308 43.5237 77.5355 43.3284L74.7071 40.5L77.5355 37.6716C77.7308 37.4763 77.7308 37.1597 77.5355 36.9645C77.3403 36.7692 77.0237 36.7692 76.8284 36.9645L73.6464 40.1464ZM90 40H89.5V41H90V40ZM88.5 40H87.5V41H88.5V40ZM86.5 40H85.5V41H86.5V40ZM84.5 40H83.5V41H84.5V40ZM82.5 40H81.5V41H82.5V40ZM80.5 40H79.5V41H80.5V40ZM78.5 40H77.5V41H78.5V40ZM76.5 40H75.5V41H76.5V40ZM74.5 40H74V41H74.5V40Z" fill="black"/>
<path d="M99.0568 20V11.2727H104.29V12.2102H100.114V15.1591H103.898V16.0966H100.114V20H99.0568ZM106.1 20V11.2727H109.049C109.73 11.2727 110.29 11.3892 110.728 11.6222C111.165 11.8523 111.489 12.169 111.699 12.5724C111.909 12.9759 112.015 13.4347 112.015 13.9489C112.015 14.4631 111.909 14.919 111.699 15.3168C111.489 15.7145 111.167 16.027 110.732 16.2543C110.297 16.4787 109.742 16.5909 109.066 16.5909H106.679V15.6364H109.032C109.498 15.6364 109.873 15.5682 110.157 15.4318C110.444 15.2955 110.651 15.1023 110.779 14.8523C110.909 14.5994 110.975 14.2983 110.975 13.9489C110.975 13.5994 110.909 13.294 110.779 13.0327C110.648 12.7713 110.439 12.5696 110.152 12.4276C109.865 12.2827 109.486 12.2102 109.015 12.2102H107.157V20H106.1ZM110.208 16.0795L112.355 20H111.128L109.015 16.0795H110.208ZM121.139 15.6364C121.139 16.5568 120.973 17.3523 120.641 18.0227C120.308 18.6932 119.852 19.2102 119.273 19.5739C118.693 19.9375 118.031 20.1193 117.287 20.1193C116.543 20.1193 115.881 19.9375 115.301 19.5739C114.722 19.2102 114.266 18.6932 113.933 18.0227C113.601 17.3523 113.435 16.5568 113.435 15.6364C113.435 14.7159 113.601 13.9205 113.933 13.25C114.266 12.5795 114.722 12.0625 115.301 11.6989C115.881 11.3352 116.543 11.1534 117.287 11.1534C118.031 11.1534 118.693 11.3352 119.273 11.6989C119.852 12.0625 120.308 12.5795 120.641 13.25C120.973 13.9205 121.139 14.7159 121.139 15.6364ZM120.116 15.6364C120.116 14.8807 119.99 14.2429 119.737 13.723C119.487 13.2031 119.148 12.8097 118.719 12.5426C118.293 12.2756 117.815 12.142 117.287 12.142C116.759 12.142 116.28 12.2756 115.851 12.5426C115.425 12.8097 115.085 13.2031 114.832 13.723C114.582 14.2429 114.457 14.8807 114.457 15.6364C114.457 16.392 114.582 17.0298 114.832 17.5497C115.085 18.0696 115.425 18.4631 115.851 18.7301C116.28 18.9972 116.759 19.1307 117.287 19.1307C117.815 19.1307 118.293 18.9972 118.719 18.7301C119.148 18.4631 119.487 18.0696 119.737 17.5497C119.99 17.0298 120.116 16.392 120.116 15.6364ZM129.837 11.2727V20H128.814L124.058 13.1477H123.973V20H122.916V11.2727H123.939L128.712 18.142H128.797V11.2727H129.837ZM131.474 12.2102V11.2727H138.02V12.2102H135.275V20H134.218V12.2102H131.474Z" fill="#5F5F5F"/>
<path d="M105.188 45.1278C104.532 45.1278 103.99 44.9915 103.561 44.7188C103.132 44.4432 102.83 44.054 102.657 43.5511C102.487 43.0455 102.458 42.4503 102.572 41.7656C102.683 41.0923 102.909 40.5014 103.249 39.9929C103.59 39.4815 104.017 39.0838 104.528 38.7997C105.042 38.5128 105.61 38.3693 106.232 38.3693C106.636 38.3693 107.007 38.4347 107.345 38.5653C107.683 38.6932 107.968 38.892 108.201 39.1619C108.434 39.4318 108.595 39.7756 108.683 40.1932C108.771 40.608 108.767 41.1023 108.67 41.6761L108.597 42.1491H103.228L103.394 41.1094H107.281C107.332 40.8139 107.315 40.5511 107.23 40.321C107.144 40.0881 107.002 39.9048 106.803 39.7713C106.605 39.6378 106.356 39.571 106.058 39.571C105.754 39.571 105.47 39.6491 105.205 39.8054C104.944 39.9588 104.724 40.1577 104.545 40.402C104.366 40.6463 104.252 40.9034 104.204 41.1733L104.029 42.1705C103.967 42.5795 103.981 42.9134 104.072 43.1719C104.163 43.4304 104.322 43.6207 104.549 43.7429C104.776 43.8651 105.063 43.9261 105.41 43.9261C105.637 43.9261 105.847 43.8949 106.041 43.8324C106.234 43.7699 106.406 43.6761 106.556 43.5511C106.71 43.4233 106.838 43.267 106.94 43.0824L108.35 43.2443C108.194 43.625 107.965 43.9574 107.664 44.2415C107.363 44.5227 107.002 44.7415 106.582 44.8977C106.164 45.0511 105.7 45.1278 105.188 45.1278ZM109.437 45L110.528 38.4545H112.007L111.819 39.5668H111.9C112.099 39.1918 112.373 38.8991 112.722 38.6889C113.072 38.4759 113.465 38.3693 113.903 38.3693C114.343 38.3693 114.698 38.4773 114.968 38.6932C115.241 38.9062 115.409 39.1974 115.471 39.5668H115.539C115.744 39.2003 116.036 38.9091 116.417 38.6932C116.801 38.4773 117.231 38.3693 117.708 38.3693C118.305 38.3693 118.762 38.5597 119.08 38.9403C119.399 39.321 119.497 39.8764 119.374 40.6065L118.642 45H117.099L117.798 40.8452C117.86 40.4389 117.798 40.142 117.61 39.9545C117.426 39.7642 117.177 39.669 116.865 39.669C116.492 39.669 116.183 39.7841 115.936 40.0142C115.691 40.2443 115.541 40.5455 115.484 40.9176L114.798 45H113.285L113.992 40.7812C114.044 40.4432 113.984 40.1733 113.813 39.9716C113.646 39.7699 113.399 39.669 113.072 39.669C112.85 39.669 112.639 39.7259 112.437 39.8395C112.235 39.9531 112.063 40.1122 111.921 40.3168C111.782 40.5185 111.691 40.7528 111.649 41.0199L110.984 45H109.437ZM119.797 47.4545L121.306 38.4545H122.823L122.648 39.5369H122.738C122.84 39.3778 122.978 39.2088 123.151 39.0298C123.327 38.848 123.55 38.6932 123.82 38.5653C124.09 38.4347 124.418 38.3693 124.805 38.3693C125.307 38.3693 125.741 38.4986 126.104 38.7571C126.468 39.0128 126.728 39.392 126.884 39.8949C127.043 40.3949 127.063 41.0085 126.944 41.7358C126.824 42.4545 126.604 43.0653 126.283 43.5682C125.962 44.071 125.577 44.4545 125.128 44.7188C124.68 44.983 124.198 45.1151 123.684 45.1151C123.309 45.1151 123.006 45.0526 122.776 44.9276C122.549 44.8026 122.377 44.652 122.26 44.4759C122.144 44.2969 122.057 44.1278 122.001 43.9688H121.932L121.353 47.4545H119.797ZM122.273 41.7273C122.205 42.1506 122.204 42.5213 122.269 42.8395C122.337 43.1577 122.472 43.4062 122.674 43.5852C122.876 43.7614 123.14 43.8494 123.466 43.8494C123.807 43.8494 124.106 43.7585 124.361 43.5767C124.62 43.392 124.834 43.1406 125.005 42.8224C125.178 42.5014 125.3 42.1364 125.371 41.7273C125.437 41.321 125.437 40.9602 125.371 40.6449C125.306 40.3295 125.174 40.0824 124.975 39.9034C124.776 39.7244 124.506 39.6349 124.165 39.6349C123.833 39.6349 123.536 39.7216 123.275 39.8949C123.016 40.0682 122.802 40.3111 122.631 40.6236C122.461 40.9361 122.341 41.304 122.273 41.7273ZM132.073 38.4545L131.873 39.6477H128.115L128.311 38.4545H132.073ZM129.495 36.8864H131.038L130.015 43.0312C129.984 43.2386 129.99 43.3977 130.032 43.5085C130.078 43.6165 130.15 43.6903 130.249 43.7301C130.352 43.7699 130.467 43.7898 130.595 43.7898C130.688 43.7898 130.776 43.7827 130.859 43.7685C130.941 43.7514 131.007 43.7386 131.055 43.7301L131.123 44.9361C131.029 44.9645 130.903 44.9957 130.744 45.0298C130.588 45.0639 130.4 45.0838 130.181 45.0895C129.789 45.098 129.448 45.0384 129.159 44.9105C128.872 44.7798 128.661 44.5795 128.528 44.3097C128.397 44.0369 128.367 43.696 128.438 43.2869L129.495 36.8864ZM132.831 47.4545C132.621 47.4545 132.429 47.4375 132.256 47.4034C132.085 47.3722 131.95 47.3352 131.851 47.2926L132.413 46.0909C132.626 46.1563 132.818 46.1847 132.988 46.1761C133.162 46.1705 133.321 46.1122 133.466 46.0014C133.613 45.8935 133.758 45.7159 133.9 45.4688L134.096 45.1151L132.844 38.4545H134.42L135.102 43.4062H135.17L137.51 38.4545H139.21L135.379 45.7841C135.194 46.1392 134.98 46.4403 134.736 46.6875C134.491 46.9375 134.211 47.1278 133.896 47.2585C133.584 47.3892 133.229 47.4545 132.831 47.4545Z" fill="#FF0000"/>
<path d="M99.9943 70V61.2727H103.045C103.653 61.2727 104.155 61.3778 104.55 61.5881C104.945 61.7955 105.239 62.0753 105.432 62.4276C105.625 62.777 105.722 63.1648 105.722 63.5909C105.722 63.9659 105.655 64.2756 105.521 64.5199C105.391 64.7642 105.217 64.9574 105.001 65.0994C104.788 65.2415 104.557 65.3466 104.307 65.4148V65.5C104.574 65.517 104.842 65.6108 105.112 65.7812C105.382 65.9517 105.608 66.196 105.79 66.5142C105.972 66.8324 106.062 67.2216 106.062 67.6818C106.062 68.1193 105.963 68.5128 105.764 68.8622C105.565 69.2116 105.251 69.4886 104.822 69.6932C104.393 69.8977 103.835 70 103.148 70H99.9943ZM101.051 69.0625H103.148C103.838 69.0625 104.328 68.929 104.618 68.6619C104.911 68.392 105.057 68.0653 105.057 67.6818C105.057 67.3864 104.982 67.1136 104.831 66.8636C104.68 66.6108 104.466 66.4091 104.188 66.2585C103.909 66.1051 103.58 66.0284 103.199 66.0284H101.051V69.0625ZM101.051 65.108H103.011C103.33 65.108 103.616 65.0455 103.872 64.9205C104.131 64.7955 104.335 64.6193 104.486 64.392C104.639 64.1648 104.716 63.8977 104.716 63.5909C104.716 63.2074 104.582 62.8821 104.315 62.6151C104.048 62.3452 103.625 62.2102 103.045 62.2102H101.051V65.108ZM108.157 70H107.049L110.254 61.2727H111.344L114.549 70H113.441L110.833 62.6534H110.765L108.157 70ZM108.566 66.5909H113.032V67.5284H108.566V66.5909ZM122.521 64H121.464C121.402 63.696 121.292 63.429 121.136 63.1989C120.983 62.9688 120.795 62.7756 120.574 62.6193C120.355 62.4602 120.112 62.3409 119.845 62.2614C119.578 62.1818 119.299 62.142 119.01 62.142C118.481 62.142 118.002 62.2756 117.574 62.5426C117.147 62.8097 116.808 63.2031 116.555 63.723C116.305 64.2429 116.18 64.8807 116.18 65.6364C116.18 66.392 116.305 67.0298 116.555 67.5497C116.808 68.0696 117.147 68.4631 117.574 68.7301C118.002 68.9972 118.481 69.1307 119.01 69.1307C119.299 69.1307 119.578 69.0909 119.845 69.0114C120.112 68.9318 120.355 68.8139 120.574 68.6577C120.795 68.4986 120.983 68.304 121.136 68.0739C121.292 67.8409 121.402 67.5739 121.464 67.2727H122.521C122.441 67.7187 122.297 68.1179 122.086 68.4702C121.876 68.8224 121.615 69.1222 121.302 69.3693C120.99 69.6136 120.639 69.7997 120.25 69.9276C119.863 70.0554 119.45 70.1193 119.01 70.1193C118.265 70.1193 117.603 69.9375 117.024 69.5739C116.444 69.2102 115.988 68.6932 115.656 68.0227C115.324 67.3523 115.157 66.5568 115.157 65.6364C115.157 64.7159 115.324 63.9205 115.656 63.25C115.988 62.5795 116.444 62.0625 117.024 61.6989C117.603 61.3352 118.265 61.1534 119.01 61.1534C119.45 61.1534 119.863 61.2173 120.25 61.3452C120.639 61.473 120.99 61.6605 121.302 61.9077C121.615 62.152 121.876 62.4503 122.086 62.8026C122.297 63.152 122.441 63.5511 122.521 64ZM124.229 70V61.2727H125.286V65.6023H125.388L129.308 61.2727H130.689L127.024 65.2102L130.689 70H129.411L126.376 65.9432L125.286 67.1705V70H124.229Z" fill="#5F5F5F"/>
<path d="M150.823 40.3232C150.726 40.4209 150.726 40.5791 150.823 40.6768L152.414 42.2678C152.512 42.3654 152.67 42.3654 152.768 42.2678C152.865 42.1701 152.865 42.0118 152.768 41.9142L151.354 40.5L152.768 39.0858C152.865 38.9882 152.865 38.8299 152.768 38.7322C152.67 38.6346 152.512 38.6346 152.414 38.7322L150.823 40.3232ZM167 40.25H166.5V40.75H167V40.25ZM165.5 40.25H164.5V40.75H165.5V40.25ZM163.5 40.25H162.5V40.75H163.5V40.25ZM161.5 40.25H160.5V40.75H161.5V40.25ZM159.5 40.25H158.5V40.75H159.5V40.25ZM157.5 40.25H156.5V40.75H157.5V40.25ZM155.5 40.25H154.5V40.75H155.5V40.25ZM153.5 40.25H152.5V40.75H153.5V40.25ZM151.5 40.25H151V40.75H151.5V40.25ZM150.646 40.1464C150.451 40.3417 150.451 40.6583 150.646 40.8536L153.828 44.0355C154.024 44.2308 154.34 44.2308 154.536 44.0355C154.731 43.8403 154.731 43.5237 154.536 43.3284L151.707 40.5L154.536 37.6716C154.731 37.4763 154.731 37.1597 154.536 36.9645C154.34 36.7692 154.024 36.7692 153.828 36.9645L150.646 40.1464ZM167 40H166.5V41H167V40ZM165.5 40H164.5V41H165.5V40ZM163.5 40H162.5V41H163.5V40ZM161.5 40H160.5V41H161.5V40ZM159.5 40H158.5V41H159.5V40ZM157.5 40H156.5V41H157.5V40ZM155.5 40H154.5V41H155.5V40ZM153.5 40H152.5V41H153.5V40ZM151.5 40H151V41H151.5V40Z" fill="black"/>
<path d="M175.861 45V36.2727H181.537V37.598H177.442V39.9673H181.243V41.2926H177.442V43.6747H181.571V45H175.861ZM190.322 36.2727V45H188.915L184.803 39.0554H184.731V45H183.15V36.2727H184.565L188.673 42.2216H188.749V36.2727H190.322ZM195.296 42.0682H196.728L197.576 43.1676L198.181 43.8835L199.634 45.75H198.1L197.111 44.4972L196.689 43.9006L195.296 42.0682ZM199.843 40.6364C199.843 41.5767 199.667 42.3821 199.314 43.0526C198.965 43.7202 198.488 44.2315 197.882 44.5866C197.28 44.9418 196.597 45.1193 195.833 45.1193C195.069 45.1193 194.384 44.9418 193.779 44.5866C193.176 44.2287 192.699 43.7159 192.347 43.0483C191.998 42.3778 191.823 41.5739 191.823 40.6364C191.823 39.696 191.998 38.892 192.347 38.2244C192.699 37.554 193.176 37.0412 193.779 36.6861C194.384 36.331 195.069 36.1534 195.833 36.1534C196.597 36.1534 197.28 36.331 197.882 36.6861C198.488 37.0412 198.965 37.554 199.314 38.2244C199.667 38.892 199.843 39.696 199.843 40.6364ZM198.253 40.6364C198.253 39.9744 198.15 39.4162 197.942 38.9616C197.738 38.5043 197.453 38.1591 197.09 37.9261C196.726 37.6903 196.307 37.5724 195.833 37.5724C195.358 37.5724 194.939 37.6903 194.576 37.9261C194.212 38.1591 193.926 38.5043 193.719 38.9616C193.515 39.4162 193.412 39.9744 193.412 40.6364C193.412 41.2983 193.515 41.858 193.719 42.3153C193.926 42.7699 194.212 43.1151 194.576 43.3509C194.939 43.5838 195.358 43.7003 195.833 43.7003C196.307 43.7003 196.726 43.5838 197.09 43.3509C197.453 43.1151 197.738 42.7699 197.942 42.3153C198.15 41.858 198.253 41.2983 198.253 40.6364ZM206.85 36.2727H208.431V41.9744C208.431 42.5994 208.284 43.1491 207.988 43.6236C207.696 44.098 207.284 44.4687 206.752 44.7358C206.221 45 205.6 45.1321 204.89 45.1321C204.177 45.1321 203.555 45 203.024 44.7358C202.493 44.4687 202.081 44.098 201.788 43.6236C201.495 43.1491 201.349 42.5994 201.349 41.9744V36.2727H202.93V41.8423C202.93 42.206 203.01 42.5298 203.169 42.8139C203.331 43.098 203.558 43.321 203.85 43.483C204.143 43.642 204.49 43.7216 204.89 43.7216C205.291 43.7216 205.637 43.642 205.93 43.483C206.225 43.321 206.453 43.098 206.612 42.8139C206.771 42.5298 206.85 42.206 206.85 41.8423V36.2727ZM210.15 45V36.2727H215.826V37.598H211.731V39.9673H215.532V41.2926H211.731V43.6747H215.86V45H210.15ZM222.94 36.2727H224.521V41.9744C224.521 42.5994 224.374 43.1491 224.078 43.6236C223.786 44.098 223.374 44.4687 222.842 44.7358C222.311 45 221.69 45.1321 220.98 45.1321C220.267 45.1321 219.645 45 219.114 44.7358C218.582 44.4687 218.17 44.098 217.878 43.6236C217.585 43.1491 217.439 42.5994 217.439 41.9744V36.2727H219.02V41.8423C219.02 42.206 219.099 42.5298 219.259 42.8139C219.42 43.098 219.648 43.321 219.94 43.483C220.233 43.642 220.58 43.7216 220.98 43.7216C221.381 43.7216 221.727 43.642 222.02 43.483C222.315 43.321 222.543 43.098 222.702 42.8139C222.861 42.5298 222.94 42.206 222.94 41.8423V36.2727ZM226.24 45V36.2727H231.916V37.598H227.821V39.9673H231.622V41.2926H227.821V43.6747H231.95V45H226.24Z" fill="black"/>
</g>
<defs>
<clipPath id="clip0_1_21">
<rect width="241" height="81" fill="white"/>
</clipPath>
</defs>
</svg>
